<mxfile host="app.diagrams.net" modified="2023-12-17T14:58:09.372Z" agent="Mozilla/5.0 (Windows NT 10.0; Win64; x64) AppleWebKit/537.36 (KHTML, like Gecko) Chrome/109.0.0.0 Safari/537.36" etag="enVkJB2pqZk1AVUZyOpS" version="22.1.11" type="device">
  <diagram name="Сторінка-1" id="LccSJyeh4bwaCGUOvDH8">
    <mxGraphModel dx="1701" dy="484" grid="1" gridSize="10" guides="1" tooltips="1" connect="1" arrows="1" fold="1" page="1" pageScale="1" pageWidth="827" pageHeight="1169" math="0" shadow="1">
      <root>
        <mxCell id="0" />
        <mxCell id="mUsElW4PzbGTxgSbUnpJ-4" value="Шар без назви" parent="0" />
        <mxCell id="mUsElW4PzbGTxgSbUnpJ-5" value="" style="shape=image;verticalLabelPosition=bottom;labelBackgroundColor=none;verticalAlign=top;imageAspect=0;image=data:image/jpeg,/9j/4QCbRXhpZgAASUkqAAgAAAADAA4BAgBRAAAAMgAAABoBBQABAAAAgwAAABsBBQABAAAAiwAAAAAAAABBYnN0cmFjdCBnZWFyIHdoZWVsIG1lY2hhbmlzbSBiYWNrZ3JvdW5kLiBNYWNoaW5lIHRlY2hub2xvZ3kuIFZlY3RvciBpbGx1c3RyYXRpb24sAQAAAQAAACwBAAABAAAA/+0AnFBob3Rvc2hvcCAzLjAAOEJJTQQEAAAAAACAHAJQAAhyb3l5aW16eRwCeABRQWJzdHJhY3QgZ2VhciB3aGVlbCBtZWNoYW5pc20gYmFja2dyb3VuZC4gTWFjaGluZSB0ZWNobm9sb2d5LiBWZWN0b3IgaWxsdXN0cmF0aW9uHAJuABhHZXR0eSBJbWFnZXMvaVN0b2NrcGhvdG//4QVxaHR0cDovL25zLmFkb2JlLmNvbS94YXAvMS4wLwA8P3hwYWNrZXQgYmVnaW49Iu+7vyIgaWQ9Ilc1TTBNcENlaGlIenJlU3pOVGN6a2M5ZCI/Pgo8eDp4bXBtZXRhIHhtbG5zOng9ImFkb2JlOm5zOm1ldGEvIj4KCTxyZGY6UkRGIHhtbG5zOnJkZj0iaHR0cDovL3d3dy53My5vcmcvMTk5OS8wMi8yMi1yZGYtc3ludGF4LW5zIyI+CgkJPHJkZjpEZXNjcmlwdGlvbiByZGY6YWJvdXQ9IiIgeG1sbnM6cGhvdG9zaG9wPSJodHRwOi8vbnMuYWRvYmUuY29tL3Bob3Rvc2hvcC8xLjAvIiB4bWxuczpJcHRjNHhtcENvcmU9Imh0dHA6Ly9pcHRjLm9yZy9zdGQvSXB0YzR4bXBDb3JlLzEuMC94bWxucy8iICAgeG1sbnM6R2V0dHlJbWFnZXNHSUZUPSJodHRwOi8veG1wLmdldHR5aW1hZ2VzLmNvbS9naWZ0LzEuMC8iIHhtbG5zOmRjPSJodHRwOi8vcHVybC5vcmcvZGMvZWxlbWVudHMvMS4xLyIgeG1sbnM6cGx1cz0iaHR0cDovL25zLnVzZXBsdXMub3JnL2xkZi94bXAvMS4wLyIgIHhtbG5zOmlwdGNFeHQ9Imh0dHA6Ly9pcHRjLm9yZy9zdGQvSXB0YzR4bXBFeHQvMjAwOC0wMi0yOS8iIHhtbG5zOnhtcFJpZ2h0cz0iaHR0cDovL25zLmFkb2JlLmNvbS94YXAvMS4wL3JpZ2h0cy8iIHBob3Rvc2hvcDpDcmVkaXQ9IkdldHR5IEltYWdlcy9pU3RvY2twaG90byIgR2V0dHlJbWFnZXNHSUZUOkFzc2V0SUQ9IjEwNjgwNzE4OTAiIHhtcFJpZ2h0czpXZWJTdGF0ZW1lbnQ9Imh0dHBzOi8vd3d3LmlzdG9ja3Bob3RvLmNvbS9sZWdhbC9saWNlbnNlLWFncmVlbWVudD91dG1fbWVkaXVtPW9yZ2FuaWMmYW1wO3V0bV9zb3VyY2U9Z29vZ2xlJmFtcDt1dG1fY2FtcGFpZ249aXB0Y3VybCIgPgo8ZGM6Y3JlYXRvcj48cmRmOlNlcT48cmRmOmxpPnJveXlpbXp5PC9yZGY6bGk+PC9yZGY6U2VxPjwvZGM6Y3JlYXRvcj48ZGM6ZGVzY3JpcHRpb24+PHJkZjpBbHQ+PHJkZjpsaSB4bWw6bGFuZz0ieC1kZWZhdWx0Ij5BYnN0cmFjdCBnZWFyIHdoZWVsIG1lY2hhbmlzbSBiYWNrZ3JvdW5kLiBNYWNoaW5lIHRlY2hub2xvZ3kuIFZlY3RvciBpbGx1c3RyYXRpb248L3JkZjpsaT48L3JkZjpBbHQ+PC9kYzpkZXNjcmlwdGlvbj4KPHBsdXM6TGljZW5zb3I+PHJkZjpTZXE+PHJkZjpsaSByZGY6cGFyc2VUeXBlPSdSZXNvdXJjZSc+PHBsdXM6TGljZW5zb3JVUkw+aHR0cHM6Ly93d3cuaXN0b2NrcGhvdG8uY29tL3Bob3RvL2xpY2Vuc2UtZ20xMDY4MDcxODkwLT91dG1fbWVkaXVtPW9yZ2FuaWMmYW1wO3V0bV9zb3VyY2U9Z29vZ2xlJmFtcDt1dG1fY2FtcGFpZ249aXB0Y3VybDwvcGx1czpMaWNlbnNvclVSTD48L3JkZjpsaT48L3JkZjpTZXE+PC9wbHVzOkxpY2Vuc29yPgoJCTwvcmRmOkRlc2NyaXB0aW9uPgoJPC9yZGY6UkRGPgo8L3g6eG1wbWV0YT4KPD94cGFja2V0IGVuZD0idyI/Pgr/7QCcUGhvdG9zaG9wIDMuMAA4QklNBAQAAAAAAIAcAlAACHJveXlpbXp5HAJ4AFFBYnN0cmFjdCBnZWFyIHdoZWVsIG1lY2hhbmlzbSBiYWNrZ3JvdW5kLiBNYWNoaW5lIHRlY2hub2xvZ3kuIFZlY3RvciBpbGx1c3RyYXRpb24cAm4AGEdldHR5IEltYWdlcy9pU3RvY2twaG90b//bAEMABQMEBAQDBQQEBAUFBQYHDAgHBwcHDwsLCQwRDxISEQ8RERMWHBcTFBoVEREYIRgaHR0fHx8TFyIkIh4kHB4fHv/bAEMBBQUFBwYHDggIDh4UERQeHh4eHh4eHh4eHh4eHh4eHh4eHh4eHh4eHh4eHh4eHh4eHh4eHh4eHh4eHh4eHh4eHv/AABEIAb4BoAMBIgACEQEDEQH/xAAfAAABBQEBAQEBAQAAAAAAAAAAAQIDBAUGBwgJCgv/xAC1EAACAQMDAgQDBQUEBAAAAX0BAgMABBEFEiExQQYTUWEHInEUMoGRoQgjQrHBFVLR8CQzYnKCCQoWFxgZGiUmJygpKjQ1Njc4OTpDREVGR0hJSlNUVVZXWFlaY2RlZmdoaWpzdHV2d3h5eoOEhYaHiImKkpOUlZaXmJmaoqOkpaanqKmqsrO0tba3uLm6wsPExcbHyMnK0tPU1dbX2Nna4eLj5OXm5+jp6vHy8/T19vf4+fr/xAAfAQADAQEBAQEBAQEBAAAAAAAAAQIDBAUGBwgJCgv/xAC1EQACAQIEBAMEBwUEBAABAncAAQIDEQQFITEGEkFRB2FxEyIygQgUQpGhscEJIzNS8BVictEKFiQ04SXxFxgZGiYnKCkqNTY3ODk6Q0RFRkdISUpTVFVWV1hZWmNkZWZnaGlqc3R1dnd4eXqCg4SFhoeIiYqSk5SVlpeYmZqio6Slpqeoqaqys7S1tre4ubrCw8TFxsfIycrS09TV1tfY2dri4+Tl5ufo6ery8/T19vf4+fr/2gAMAwEAAhEDEQA/APrAgHrSbF9F/KpMUlADaYI15yoOTUtNoATGOlIQD1GadRQAzYB0UUUtGKdxWI9q/wB1aRBgn3qSk65xTEMKKewoAA6LTqKAGEZpNq/3RT6Q0AVNRhea0Iix5oIkTPTIOR/KuB1Xw69zr9xfaY8YmnG6SG4+Tyjn5/z/AK16R0rOs4IbsS3c8McnmvlA6A4QcD/H8aAOc8H6PDZWzWsDGQvciW5k/gQIfkQHvyP88V2BCnrVN1W1v43QAQz/ALsgdA46f4flV2pKGYX0FLTqbQAm1f7opu3D7u2MU+k9u9ADSF7rRgdlFOoqiSNvemlB6CpKbQA000qpcHaKfTTwaAEwB0WmkZp9Q3k6WttJcSfdjGTigB2B6ClrB0vxELu9WCW38sSHCEHP51vUDsM2D0FIU6Y7GnmkNAhpA7imYUdFqSm0AJTXjQjaVFOooAhz5fyt93sfT60OuakIqI/uv+uf8qADHNBFKOeRS0AMIH90UUtMc4+UfeoAbJ6AAtTfLUIQO/U1Ii7R6nuaDxQAwjNJgelOpKAG0hA/uin02gBlI4yKfSGgDsqKKKkoSmR/xfWpKMUAMxRTqKAG0UUUANqNfvSfX+lS4pKAEptOoqiRtJS0UAU9VY/ZxDG2JJz5a/j1P5ZqSJBG2xVwAgAFQp+/1Rn/AIbcbB/vnr+mKuYoAgvLcXNtJCWxkcH0PY1HYTG4tgzDEg+SQejjrVqqL/6NqYf/AJZXPB9pB0/MfyoAt0hp1JUlDab/AMtx/u080lAA1JS0hpoTG0hpxpKYhtMb/WL+NPakPWgBtRXcKXNvJDKMq4wamNJQBhafoFvZ3q3BmeTH3ARjBrapZRlOOvUUgOQCO9ABTJPvJ9afRQAxqQ06koAYaKWkNABUcvCfjUlNfnFAEWwx/c5HcUoKkbh0qRq5bxhNcxXEUcbvHEUzwcZNAHRyHHyjkmkCY9yeprK8KTTTae3nsSQ+AT1IrXoGxKbJ/qzTqKBEdIetSGmUANNJTqKAGnpTH+6afSUAdi4yODimBW/vmpaKkobUaBjn5z1qamIMZ9zmgAA+Xk5prgn+Iin0UARhTnlyaUinUUARbG/vmhM5YZ6U+kAwSfWgBrqT/GwpAGHViakptADSMjrioLl/s9vJM7nCDNWKpah++ubez7E+bJ9B/wDXxVEjtOhaKzXzP9a/zP8AU81JhjIV3sKlpuPnJoAQDA+9moL+3+02zRBtjdUPoR0NWaQ0AVLCVri3WUkhujp6EdRVg1U/49tT/wCmVz+kg/xH8qt0AR7D/fNHzBwu7PFSGmY+fPtipKEIY/xEUAMP4iaWigBCKjKH++alpKokbVHV7tbCzlu3WR440LFIwCcVoVXvY0ktpfMx5fluDn0xQBz1vqHiLUIlmsNNt7eCQZSS5mySPXApL228TpZzXEmsW6GNC2yK264HTJq54HLt4Usd/XYQPpk4rYcBkKkZB4NAGb4emku9Es7maYySSRhnPHJq6nDsn4iuf0Cf+xrxtBvW2LvLWUh6SIT9z6iugl4If06/SgBCh/vmkzghc5Oeaj1K8trC0a5u5RHEnc9/YVzVlpV/qjza4buewupXzbIOgjHQOO+aAOqcZ/iIpNjepNYllrU9tcrp+uwi3nfiO4T/AFUv49jW5QAh+7Uexv77VJSGgBtRyZ6gn0qQ1HJ9wDuegoACdnG4knoKjkt4pEKyokmfUZqUJjk8seppaAMkxbT+7bYRxU8Vy33X5x1FLOP3rVC6Z9j60AWgwk6OfpTjwh+aqAPODwamErgYPIoAtEZH3sUzDf3moSVG/i59KeaAIpZBGm56hikWXOGOR61JcxGVNo6iobaExuWb6UAT0jj+LNPpp5FAHZYopaKkoSm9elOpsf8AH9aACilxSUAFGKKKAEpvUnHannpUa/ek+v8ASgBaKU0lADao6d++lnvD0kO2P/cH/wBfNTarK0dmVj/1shEcf1NSW8SQwRwr91AAKAH0zPO3vT6Zj96foKokDRS0hoAr6hb+fbMiNiQfMh9HHSizm+02yyYwTwR6HuKsVQT/AEXUyn/LK5+cezjr+Y/lQBbpp64qSo2/1v4UALTadUVzNFbW8lxM4SKMFnJ7CpKKOv6rDpVmJHQzTSHbBCnWR/QUmhatbavbb4/3c6cTQv8AfjPcEVm+G7eXVL1vEV+jKX+SyiP/ACyj9fqav6roGn6hOLkrJb3Y6XFu+x//AK9AGpXOeJ9Qa5J0HTCJL25GyQjkQR9yfwp58N3DfJN4h1WSL+4JAM/jir+maVY6WixWNuIwfvv1L/U1RJPZWsdnZw2kX+riQIPwqU9ara7PPa6PdXNqEM0UZcBxkcV5VdeLvEFwTm/MY9I0AoA9T1PT7PUrYwXsImj6jPUfQ9qyf+EfvIh5Vp4gvoYemyQCTH0Jqz4Pvv7Q8PWs7TGSUDZIScnePWtZyoBYtgDvQBg2Hh22Ey3OoXFxqNxGeDcHIQ+w6VtnjFZWkeIdL1O7aG2nxLkjY/BOO49a1H/g+tAGP4vmtY9HaKe2F1JORFDB3dz0qfw9ZXVjpENte3JnmQdfT298VSvx53jfT4ZPuwWskyD/AGycVv0ANNJT6jkOz3J+6KAGSHAx1J6CmgbfmfknvTgnz5PJok6f8CFAC02nUhoApXYxL9RUDVbvB91qq0AQ3HEDOBkgEiubttTvPtis8pcF8Mnaum/1nT7n86g+yW0bmRLdBJ6gUDROakSZ09xTKSgRZSVH9j704/fqk1Kkzp3yKALZqMuSSqfifSmJP5vyj5PUn+lS7MJtHT2oA7Q5xwM03c/9z9akoqShtMYv/c/WpcVHGc5+tAAM45XFI+7sM07FFADFL55TH40tOptADMv/AHP/AB6nfw0tIh+dvrQAwlweEz+NA3HqMfjUh6VHPIkULSyHCoCTQBRfM+rDC5W2TP8AwM/4D+dXMv8A3P1qDSonW0EsgxLOxlf8e35Yq1QA2oyXz9z9alNM/wCWhHsKAAbj1XFNJYdBmn0hqiSPL55TA+tQ6hCbi2Ij4lT54z6EdKs0lAFa0na4t1mWPqORu6HuKm7criqkf+jai0P/ACyuP3iez9x/X86tf8tNvbFADXz2Xd+NY/inTbzV9KNnbTJBlwTvGRIB2OOgraoNJjRg6JrDvc/2TqVoLK+jTKID+7lT1Q/0rZ3P/c/WsTxxbZ0f+0IeLuwImhf6dR9MVsWkwuLaKdekiBh+IpDIdX1C20zT5by7fZHGPxJ9BWbonifTdUtw8c0cMv8AHFJIAR/jXK/Fc6nJcwq1u6adH9xxyHc9Sf5VwtAHp3jnxNZw6XPYWs0c1xOPLPltkID1ya8xoqezsrq8k2WltNO3pGhNAFrRdZ1HR5i9jNsD/fQjKH8Kvav4t1nUrc20kscMT8OIkxn8apXOg61bR+bNpt0ijqdmcVm0ALH5vmK0JIlBGzZ1zXtOhJfJpUA1GQSXGz5yBXjmmzLbahbzuMrHMjkfQ17Xbyxyxq8Lh43w6EdwaaEzE8UiSyvLLXIkLrbEx3IHXy37/hWzbTpcxLNEweJxkODkEVM4DAqyqQeGBrn5dDubCRpND1A2iucm2kTfGT7elMRvSHaPU9h61Egf7zJlj79Kxfsniqb5ZtSsLcHjfDCSR9M1N4SuribSmhupWkuLaZ4ZHPUkHrQBrjkfWmHd2XP41JTJOF/GgBBnuMUHpwuaU03K0AQXe7y/udD61SP7z/d/nV6cGWI/LhP51UIoAYSw7cfWkz7U/FNf7hoAaS3YU35u60+kbpQA0ioSXfoPl+vWpf8AWf7v86VqAIx0HaniWSP7gyPSljjZycCp0hCjd1NAHd0UUVJQ2mqmM4781JUYOc+xxQAUmKfTaAEopWpKAG0AYJPrTqaDkkelABVDVf3zwWI/5avl/wDcHJ/oPxq/VCw/f3txeH7oPkx/Qdf1/lQBeptOaigBtNxhy3rTqTOSRQAhpKWkqiRtIafTaAKuowmW3/d/62M+ZGfcU62lSeKO4To46elTmqNv/o2oSW3/ACzn/ex+x7j+tAFym1He3CWlpNcy58uJCxx1wKwB4siuYx/Zuk6ldyOOP3OxPzoAm8cXPk+HprdeZ7vFvCncl+P5Vq2UP2aygg/55RhPyGKx9L0q+udRXWNcZPPjGLa2jOUg9/c1rapew6fYTXtwrmKIZfYMmpKG6pbQ3enXFtOAYpIyDnt714P/ABV3Pinxyl5ZSWOlwyRiUbXlk4OPQCuGoA2PCWjPrerrbZKQoN0zjsK9esLO1sLZba0hSKJOwFcb8IFT7PqL/wDLTeg/Dmu8poTGGuL+IHhm3ms5dVsYxHPGu6ZEHDjufrXa1HcIjQSI33ChB+lMR4LV/Ttc1XTEAtLx0jH8BwQPwNZ1w3lk49eKk0u2udRu1s7aLzJX6AVJR6B8PNbvL+7vYb+d53IEiZ/IgfmK7IKc726/yrlPBfha70e/N7cXcLsYzGY0B45Hf8K6q7mhtreSe5lEcUYy5PaqJHE4Fcpo88sPijWIR91zHMB9RzVqO+1vV/3ulwQ2VofuTXIy7j1CU/RtCubbV5tRvr5LppYxHgR7OhoA3PmIzSFcry1SVHIyoNx6UANO0DJqPHmcn7vYetOwznc3A7CnGgBCMgis81o1QmGJD9aAGUwjIK0402Qqq7jQAh469Kjxu+Y9PSn4J5b8BUscLHk8CgCHBJwBmrEcH8Un5VMiKg2haU0AR4xjFc1431p7GEWNqxE8oyXH8Cf410zjis3xDp1vqemSxSIPM2Hy37oe1AHozkBdxbFN8xM/fFPoxUlCVCjoN+WH3qmooAaCpG4NmmuVHVsU/FJQAwMhO0EZoPWn4ptADPMT1WkTqx9aeRRQBT1S5+zWcjJjzT8sY9SeBUllElvbRQRnPljGfX3qCf8A0nV4of8AlnbDzX/3zwP6mrtAASoHPSo/MT++tSUYoARqh3AStlh0qamkUAICHHDZprkActin0hoAiDoTtDDNONOIqpJdZcx2yefIODg/In1NUSSvLEiEvIgA6kmsvUDPeIHsU5i+dJX6E+gHfNXktN7iS6fzmHIGPkH0FWDQBi3pml0WZUf7VFPA45wHGR+RqPwPdRXPhex2uCyQiNxnkEcVoW3+jXstqf8AVyfvY/6j+v41yGmX1vo099pLWt7JdQXTmD7LHk+WeRntjnvQB3J461n6/Ct5o17aggtJA4X644rJi8Vtbj/ia6VqNrH/AM9jB8n446V0FndW17brc2syTRP0dDkUAeCi3uDGXEMhUdSEOKjr6BSNETYqAL6AcV5l8UdGtrG4gv7WIRrcEpIg4GfWpKM/4f60mj6wVuG22twNrn+4exr1rchQOCCp5Bz1rwGtnRvE+saVGIba53wjpHKN4H09KAPY96Z+8K5/x3rkOl6TJCrj7XcIUjQdQD1NcddePNbmj2RrbwH++ic/qa5i7uZrmd57mZ5pX6u5yTTuKxBIARzXb/CSGETXspwZ/kA9k5/+tXEgc7jV7R9Su9LvVu7R8SDgg8hx6GkM9pJWOXlsB/5/5/lWBroXU/EFjo5ObdEN1OP7+DgD862bKS5uNOhkuYRDcFAxjB6H0rIu3W28a2c78RXloYEP+2DvqiTdOETjgCkDpj74px5+WkYhBk0AI5ATJPFQyc4Z+MEYFSgMTvf8B6UtADcqejZpp4HNYfibxPbaLKLc20k05TeB0GPrVHwn4pfVdRltrtIYSRmEDv6igDqNyeoqpeYSQkkAe9Xa83+JHie3a0+wRRZ3uOc84B64oA7Izw/89UY+galSJ5QT1/pXkWnnybmG4Zt+xw+K9rt5Y7iCOaFgY5AChHpQAxIkj69fU07K+op0hCoXYgKBkk9q5W38a6c9zJHcQyRxhyEkHII9aAOopu9f7wpltc293AtxbSCSJ+jipaAG9ax/EmrQaZZNvcGc/wCrjzyT/hWd8SJJY9PtWjd0/fHkHHavP3dnly5JOOpNJgfT1Np1FIobTI+jfU0+kAAzjvzQAUhpaKAG0hpxpKAG1EXVfNdzhRyT6cVMaz9Y/eJHZr967faf9wcv+nH40ALo6sbdruRcSXL+afYdh+WKuGgDA2j5QKWgBtFOptAAelRj/Wn/AHRUlJjBLd6AG0U5qbQBV1TcNOuscHyX/lUkaJHGEjUIo6AUzVf+QZdf9cX/AJVN2FAA1R/8tfwqSmEc7qokq6nE5gE0QzLAfMT39R+IqSAxSxieJR+8UHIHWpjVGz/0a7lsz90/vYfoeo/A/wA6ALhCkbSuRXHXkf8AwjmtyalaDy9OlnSK8hH3EyBiQenJrsa5nxoUHhzWvM77APrhMfrQB0leW/FPVHutUj08QyRx22TlxjeT3HtXptoHFnCsn3hGM/XFUNf0Ow1q38u9i+YfckTh0+hqSjxGKN5ZBFEjux4AQZJq5d6PqtpB51zp1xDH/feMgV6h4S8LW+gyTyO63EznCSbMEJ6V0MoQxssigqRgg96APACcDmtDw1o82tarHaxtsGN7v/cT1qx4w05LDxJdW1ujCPIaNB2BGcV0Pwutb221SeSaynSGSHAldCBnNAG9H4H0FLfyzDM7Y/1hkOf8KoaP4JjsNd+1TTCe1jIMCHqT7/Su2rO1PWNK099l7fQwuOdmcn8hzVEl0j86zdX02HU7NrWQmNkPmQyDrG/YiksvEGjXsgjt9RgMh6AnYT+dWb+4itIzdzOEiQHeT6UAYtnrN5Z3sOl61av9okOyGaHlJffHat4Ic7269h6Vz/hpX1XUZfENyuAR5VlGf4I/X6mqvxI1PVLC0iitB5cE/DzA859PagDqIJ4ZjIIZkkMZ2vsOcH0pZvu/iK8Z0fVr/SrgzWUxQn76HkP9RW1eeONYuLcxKlvAT/GiHP6mlcdh/wAT7mKbW4oY2BaCHD49Sc4rlUZo3DqxDhsgjtRJI8sjSSOXZzkknJJptIZuR+LNejg8oXue2SgJ/OuWu7Ez3LTy3Dvk5bPWrtFACDbgY6VraR4g1LS4zHBMDD/zzkGQPpWQODj8qdQBtav4l1XU4jDLKkcR6pGMZ+tYtFFAHq/hTy/+EcsvK248sfn3/WtOvM/DHiSbRwbeSLz7UnOzOCh9q3bvxxbCA/ZbOYy9vMwAPyqiTZ8UaU2sWC2yyCNkkDbyM9j/AI1yWo+DLy3ikmtZ0uCnVMbCfpTNE8W3ltes1+5nglfJHdPp/hXfWzJcWyzRnMcg3j3B5pbj2O8NJSkZHUr9KZ5ffe/50hjqYhzn2OKfUQi65Yjn1oAfSUAYGNxP1odM/wARH0oAKKaqYPU/nSnkUAJWdaf6Tqtxc9Vg/cR/Xq5/kPwqfUJfstnLNlyQPkGep7D86NMtja2qwlskck+p7n880AWGpKCuT1I+hpAmP4ifrQAGkpSMimmP/af86AFpM5cj0paj8v8AeFtxx/vUAPpDSgY/iJ+tNcZH3iv0oArar/yDLr/ri/8AKpx0FV9TjY6dcKN5Pkvgdc8VPFIksQeJw6nuDQANSE/Pj2zQY/d/++qaBhx6YqiRapapG/krcxDMsB3geo7j8quOmT1YfSk247k/WgBsciSxLLGdyuMg1x8rHxD4nm0+Pixs50mud/BkcAAJj0yK6Wy/cTzWJO1R+8h/3D1H4Gse/wBFTULyfULC6e1vo3AhuU5DjYOD6ikwOiqK4mjgTfM6Rxjku5wBWHZ+ImtZRZeIofsF10Ev/LCX3B7fQ1Ss7VvFFwdV1Hf/AGWjkWttnAcD/lo9DGi9P4w8PRuR9v34+8Y43cfmBV7S9U0/VB5lpdQzY/gB5HuR1qzbW0cUYSOMRxD7kYGAKzNb0C2vf9JtP9C1CPmO4i4Off1FIZsbU3ZwM+uKKyfDGoS6hZMtypjvLdzFcpn+Md/oa1jTQmYHiO8u5LyHRNMfy7q4XdJN/wA8I/X61Y0zQ9N0xB5NskkpPzzSfPI59Sap6Mgk8W63LIx8xPKjHPRMZqtrevXVvqLW9sqCOJ8HeMk0wsbWqaZp97F5V1ZwzZ4HHP4HtXNXPhvVJZBp0968+jxnzACf3hH/ADzJ9B/n26nTpftdlFdHIaQZPtWL4113+wrJfJYPdyt+7R+QB3JoEaWmRsgwF2Kg2Yxisf4kvGnheUSY3PIgT65/wzWTF8QYxH+901/NI/gk4zXL+I9dvNauA83yRJ/q4g3A/wDr0rjsZNFFa/hvQLzWrjbEvlwIf3kp6D6eppDMuCKWaURwxPJIeiIMk1tzeE9Vg0qa/uUSERpu8snLkV31va6J4WsDKWSHjBkfl5D/AJ7VyviDxvLdxy21hbCOFwVLy8kj6dqAONooooARxxx1FAORmlpvQ7exoAdRRXReCtCh1aWd7tj5MYwAhwcmgDnaK3vEnhm70nM0eZ7T/noByn1rBoA0fDVtFd63bwyrlSSSPXAzivTNWlubXTJZLG3E0yJ8if5/lXlFldS2V7BcxfejcEe9emafr+l39uHF0kMmOY5H2EU0JnplFOam0hgaSlqOP+L/AHzQA40lOprUAIaKWkPAyelAGdef6Tqlvbfwxfv5P5IPzyfwq/VDSipim1GVgPtD7wTxiMcJ+nP40ov08yRxDMYM/wCtCcdPTrj3oAumkojkSWMPG4dT0INFACUUHrRQA2ilNRj/AFx/3RQA+kpaRqAENVZbVTIZYHMEp+8R0P1HerdNoApi6MRCXqCM9pB9w/4fjVmnOFIIIyD2NUTbSQS7rRwBj/VP9z8PSgC41VZrpI38qMGaX+4nb6+lJturn/Wf6PH6Icufx7UnmW9r+4gi3ydfLTr9Sf8AGqJKWp2s0ka3lwwcwHf5KdCncH14qyLoTIFsEEgx/rOkY/x/Cnm2ln+a7cFf+eSfc/H1qPT8W0ktieFj+aP/AK5n/CgCK9tnkt2ivYob63P30dACPpT9MFp9mjhtgI4YAFSLoUx6g1aA8w7j93sKhu7aOWWN+UkGcSJwRQBPTWquZZrf/j5HmR/89UH8xVhHSRA8bB1PQipKOSfUY9H8YamZLe6eK4jiI8qEtlwKuHxFeXHy2Hh7UZD2MoEQ/M10NFAHN6JYax/b8+r3yWtus8IjeGNy5OOhJ6Zq/qGi2N7P58iESHqQcZ+talRyfeT61RIy3REgVI0CKBgAdq4b4k6BcTeZrMMzyCMASRH+BPUV3X3JCvZ+RVPX5I4tGvHmx5YhfOfpQB4Rf3K20Qcrkk8CmWF6LnKlNjDmpLy3S5QRk4I5z6U2ysktstu3se9SUbXhvSZtZ1NbWLiMcyP/AHBXpWq3+n+FtGjSKIcDEMQ6ufU/41xfgjxJbaKJYLm1JWU5Mqff/L0rI8R6rNrGqS3chITpGn9xKAIdX1K81S7Nzdyl2PQdkHoKrxRvLIIokLseAAMk1b0bTLrVb1LS1TJPJJ6IPU16l4e0Cx0aACFA85HzzuOT/gKAOH0vwTqd0A90UtIz2fl/yrag8D6YnyTX08je2E/xrspHVRycVimRxOEKEA96okypfA2lEfu7m6Q/UH+lZGp+BL2NC9lcxz452P8AIa9DAwBSSf6s0AeKXdrcWkphuYXhkHZ1p1ldXNlcC4tZnjkHcV63qmnWeoRm3u4Q8b9D3Q+xrzXxPoM+jXPOZLZ/9XJ/Q+9SUdn4X8RW+sxG0u1RLrGCnaQe3+Fcx4z0D+zJftVqD9kkPT/nmfT6Vz0EskMqzROUkQ5BHY16do17b+ItCZbhASR5c6+h9f609xbHlv8AGKWrOq2Uun6nPay9YzgH1HY1WpDPqCkND5xxjPvSDzM8qn50AFJgU41EGkOcKnBx1oAfRSjdjnrTHz/CB+NABWRrl55kX2Cz/eXFwfKyOieuT9M1YiS4v08yZxHASQI4zyee5pltGkmqSGNAIbRPKjA6bzyf0xQBJBYrhPtLibZ9yMDEafQf41cwPSkPmf3U/OhCxJB7UAVZLTDmS1fyJT1wPkf6ikF20biK7TyWPAfqj/j/AI1affnhRj600r5iFJUQoe3XNAC0lUriOSwikmtXzEgyYX6Y9j2q3mUgHC/nQA6m45z3p1REvvKgCgB9FAz3xSHPbb+NABSGk+fPIGPrTmoAbTcc570fvP7qfnSZbeFPpmgCmhmu8sH8iDJHyfffBx17VPFDFCmyJAg/nUOn7/sgwB99+v8AvmlkvbaOcQzXECSH+AvzVEk56c1n6mp/d3qj/j3OSP76d/8AH8Ku/NJz/D2HrQd5+UhMfWgBVIcBkOQRkGkI/iqpp26Ey2L/APLLmP3jPT8ulWHLhwoVeaAHGsu4Kxzl7X922efR/qK1Bu/i21RltCzkowAJ6GgaJLOdpkbegDIcHByOmf61PVOyDLPcJgYEg/8AQBVypGIaQjOKDv8A7o/OkJIAzjJNUScl4r8XLo+qfYhZ+eUQPkSYwT26en864zxR4rvdajEJRYLXOREh++fc1oePNC1c6reaqbfzLVznKHJQAY5H4Vxsf3zn8KkocBge9OoooAQ0kf7yQRpy5OAB3NDfdrU8CWTXPiCNymRb/vPx7UAel+EtGj0bS1QgfaJPmmf39PwrRluAPlXk1E8sj/fwB7VE+7HHWqJByXOSc1Wuf9b+FTnf/dH51XuP9YaTGixZXOMRSNx2NXTz1rEO/so/Or1ndEx7Jcbh0PrTEW5BkbaqajaQ6lYSWtymVcYPsfWrj7scYqI70kyQMHg/WgDx3VLKTT7+azm+9GcfX3rV8Eamum6vtmkCQTrscnoPQ/59a1/ibYqHt9QRev7p/wCY/rXEvwpqSjovGt9puoXMM1jIZJACJDjAIzxXPUg4FJI20UAfUZpKdTWoAKjQYznuc1JSdelACUGiigDOtrhbXRDO/SMOcevJqXSrdreyjST/AFr/ALyQ+rnk1nxf6QLKxH3d7zSfQOcD88flW0aAEpgGHZvWn0lABTadSGgCpqv/ACDLj/rmf5VPH/qx9Kh1T/kGXH/XM/yqaP8A1Y+lABTcfOT7U49aTPOKAEopTSUAB6UlLSUANppHz7vanmm55296AKmmf8eY/wB9/wD0M1xmqaVqT6vMBBJIZHJDheMH3rs9L/48x/vv/wChmpo+S59TQAy0jeK2ijkbMiIAT6nFPNONJVElDUw0Rjvk6wff94z1/wAfwq198q4binkKQVIyDwwqjp7+T5lizfNEfkz3Q9P8PwoAtnk7ajuJYreJpppUjjQZLucAUXE1vbRh7iZI1JC5c4GTWX4zubODw3efa3TbJCURD/GSOMUmBV0vxJpN1rMthbXBmllfKED5OEHf8K3ZHWKNnY4VBk+wrwO2mmtrhbi3cxyxnKOOoNbmo+MNbv7A2c1wiRuMOY0wXHvSKPVtM1Ow1OLzbG7jnHfB5H1FWnGSPY15D8OoVm8V24Mzx7AX4ON+B0r1uRsYA+8elNCY1x5hKdVH3vf2rxrxpZRWHiW8ggGIg4cAdgQDj9a9S1jxBpOkwN5t3HJKn/LKM5cn+n415Dql7JqWoz303+slckj09BQwRWoJx1qLzFTjqRUZJPWkMfJL/drtPhdDmK+m770H864eu6+Fcq+VfQluco/86SA7im06m1ZI2qsv+tNWqpt98/WkxobTXGQcdadTTxQhmlZ3Hmpsb7w/Wp3G5Cp71jgkEEcEVpWk6zJtP3x1pkmH48XzfDEzN96N0P64/rXmL9vrXp3xBkWLw5N/00dE/XP9K8x/jFJjQtV5H3t7VJK3YVDUFI+rKKRyqDcelNEqE/eP5VQhaZF/F/vmpDUXmIP/ANVADqKUEOMiqGtzGKyMcZxNORFH9T3/AAGTQBT8LxmS3lvW/wCWrlY/9wE4/qa2ay9Olj0+2isZgY1j4SX+Aj69j9a088Z7UAJTV+9J9f6UGVPX9KcPUd6AEpDQ7qDzSBwelAFbVP8AkGXH/XM/yqcfcH0qle3AuYpba1XziQULj7ifj/QVbDpgLn9KAHVEP9cfoKlphdAT6/SgBTSUoII4pCVHWgApGoDAtj+lKelACNUP/LX8KZcXltb48x+T0ABJP4VJBLHNGJYnDqehFAFWwOywz/tv/wChmrIG1APQVRdpbHbDIhkhLl98Y5Aznkf4VcimhuEDxOHHqKAH02nE4G41H5iev6VRIprP1P8Aczw3wH+rykn/AFzP+HWr55PtTJfKZCknIIwRigDgPi2mpSpbmOBzp0Q3PIORvPr/AJ71527O+Nzk46ZNexaxqNnY+Hr62v5EJjjMSIesgI+T/PtXjgK5GaTGjqvCHg6bWYjd3Nx9nt84GBl3/wDrVrar8OlS3L6ZfO8oGfLmA+f8R0rtdHjSG0VQUw6ggIOAMADH5VdNIZ4Gklzp95vRnguIH+hQit+28aa0b21ku7gGKOQGQIgGR3qL4jiH/hLbow9MIXx/fxzW18MtC0++tZ9RvYUuWSTy0jcZA4Bzj8aAOY8agWviW+U9HmMgx3B5/rWH5vmDjivdtR0rT7j52s7UtjB3wg5A/CuE8b+FrawtDqlgAiggTRDoM9xQ0CZwR4YGlqwQpFavhK1sL3W4LTUlPlSfLwcc9qVh3MKt/wABXgtNfWN2xHcDy/x7VufETw/aafBa3en2wjh/1cgHr2P864xP3bq6cMDkEdqYj2qkNU/CeqW2s6WsuALiP5Jk9D6/jWuYo8biKokotVNutaskcOC3NUjCnvQBVamy/cNWDGmep/Kk8pT0b/x2gogpUZo3Dq2CKeYsdX/Sq2ozwWNpJczS4jQZ6dfagDA+I+ppcJa2CHkfvJB+g/rXE7sbs9RxUOv39zc3Et4ThpH7dh6VR0uWSScrIS6gZOakDQAZjUqRqOvNPopWA+ojRS0hpgFRxknOexxUlMVMZ9zmgBazf+PnW/8ApnZp/wCRH/wH86vXMqW9vJNIcLGC5qto8Lx2QeUfvpyZZPqe34dKALZAIIIBB6g1Ta1ltjmxcBf+eL/c/D0q5QaAKsF2kknkyKYpv+eb9/p61KhJdl9DRPDHcR7JUDj37VU+yXKEol8/kn1GZB7Z/wAmgCW5uo4n8oKZJj0jTk//AFvxqLyJrnm7fEf/ADxjPH4nvVi3t4YEKxIBnknufqaga7aRzFZp5zDgvnCD8e/4UATOYYItxZIYkH0ApY3SRA8bB1PQhqgjtFLiW6fz5RyMj5E+gpJLTa5ktH8iQ8sMZR/qKALFNz+8I7YqBLvY4ju08iQ8A5yj/Q1Yx85PqKACkNLVNroytss08w9DIfuD8e/4UATzSxRRl5XCKO5NV/Nubr5YFMEX/PRxyfoP8adFaKJBNcOZ5R0J6D6DtVmgCC3to7fJQEyHq7HJP41DPaqbjzLdzBKRkkdD9R3q5TCPn3+1AFJLpo5yt6gjx8gkH3D+Pb8akltVLma3fyZT3To/1Hep4wDF86538kGqxtpIDus3AH/PJ/ufh6UANF0YiEvEEZ6CQfcP49vxqyT6d6gjuY5XMMqGOU9Y5O/09aZ9mlhO+0fA/wCeT/c/D0qiSzjAqC5uYrd1VzuL9EAyT9BTN95cfKkX2cfxO+CfwH9aYRbWTg8vM/8AwOR6APN/iRo+oza6t9FZyFbiPkJzjHHPp2rkry0ubKcwXULwyD+BxXukkM12hS5/cwuMGJDyR7n/AArgviS9rFo9pYOiC8gmITA58vHX8eKkoZ4Q8bpZ2cdhqqSPHGMRypyQPQitXWfiBpcdsU00SXE5HGU2AfWvN7Cxvr52SytpLgoMnYM4plzaz2knlXMTxyHnmgAvLiS7uZLmZ98shyTW34H1HU7TWIrTTSCLlwrxuMjHr+AzW38LtHsLyO6vruGOeSNxGiOMgcZziu4g0bTYNQF/b2cMM+NmUGOPpQBdbpXNfEi9htvDU0DEebcEIifiCTXSt1FeOeOY7+LxFPFfzSTc5hd/+eZ6YqiTDoikeKdZIyQwIII7EUU1xkVJR69p1zaeKPDe2XGZE2TD+4/r/WvL9a0+fS7+WzuRhkPB7OOxFWfCeuzaLqAm5eCTiaP19/rXo2taZp3inSY5opRuxmGcdvY/4U9xbHmGiapd6TfrdWrc9HQ9HHoa9V8P67Y6zbh7d9kwHzxE8j/EV5XrOlX2k3Jhu4Sn9xx0f6GqcEssMolhleOQch0OCKQz3Kf/AFTfSs89a4Ow8canbQeVdxR3a+p+R/zrSg8daY4/ewXUZ9lB/rVEnUmmyHCFhXMy+N9JA+SK6c/7gH9ax9T8cXMqGOztEhz/ABudxoGjtNSv7TT7c3F3MI1H5n6V5r4n16fWbjaFMdqh+RP6n3rOvbu7vpzNd3DzSe56UWdtLczpFFEZGJwEA5NSMdYWT3U8cEcfmSSnaB611uueDrXS9H+2Q3IjaNB5iOOHPtW/4S8OxaPAby92faiOT2jFct4113+1bsQQN/okR+X/AGz60Ac2n930p1Nfj5vSgmgD6lpDS0UAJTQVOcdqdTIv4v8AfNAGfq/7+W3sB0lfdJ/uJz+pwK0aztN/0i9ur4/cLeTD/uJ1/XP5Vo0ANopTSUAJUF3OLeIvhnIIUAdyTgfzqwaoan/qP+3mL/0NKAD7NNc/NeviP/njGePxPerQRVAVVCqOgFOpDQAU2nUhoAZIiSIUkUOp6g1U8ma2P+iPvjH/ACxkP8j2q7UY/wBaf90UAUbyRLmwifadskyAof8AfwQavAAJtCgAdhWYP+QbB/18p/6MrUoAbRRRQAHpUU5+TZ3fipT0qA83a+gQn/P60ASUhpainnhiKrJNGjOcAEgZNAFbV0V9PnyAdkZI9jirQ+4PpVfVBjTLr/ri/wDKrCfcH0poTKfmXFy7Jb4hjQlDIeSSOuB/jT4LeGA/IMs/VzyT+NJpv+ql/wCu8n/oZqZ/9Yn40xCmsbxDp9jdGOS9tkmh/wBXJnsD0Oe2D/Oq/i3xRD4fnt45rSSfzwSNj4xisV/iBpl1A0c2nXwicYcgA/h1oA6Pw/otjo8EiWQfy3feN5yareKPDFnrwiMjm2kjOTIickelUNK8caG9usdzcyRyJxl4zyOx4rqLeaK4gjnhO+OQB0PqDSY0Y3hrR7PQy1rDCRK4y0u/PmAfy61tE4x71BL/AMhSP/ri/wDMVNJ1X/epDBvvis3V9D03VLiCa+g85oM45xn2NaZ+9SGqJMi78OaJc25hfTbdB6xpsI/EV5b4r0Z9F1ZrTJeIjfG57ivaK8v+Kd3DcazDbxsC1vHhyOxJ6UmNHHD759DWx4e1690OfdbnfCfvxP0P+BrIYfLx160ZyM0hna+L/FdnqmhR21ohEsr5kDj/AFYHoa4qiigBk33KgqSc8ACo8UAHJ9qOlFKBn5RQB0Xhnwpd6zGtx50cNuTjf1P5V31hpujeGbMzFkjIHzTSH5z9P8BXAaH4ivtH06SztVj+d9+9xnFUL++vL+Xzr24eZu2T0oA3fFfiibVM2tpmG07+sn19vauZopMetAFrTbG51G8W1tU3yP8AkB6mumj8D7EKTXr+ZjIKR5H881P8L0i/02XjzRsH4c12UobZuHUcinYVzunCkbTTRGgPf86fRSGIao6xJ5FlI8efOf8AdxjP8Z4FXjWWSbvW1j6x2mZD/vngfpmgC5Z2yWlpFbx9Ixj61K6huv8AOnGkoAjEag5Gf++qdTmptAEZiT3/ADqvqnFtGv8A03i/9GCrhqhqZ/cfS5i/9DSgC26gnnP50gRR03fnTmooAaRkYNMMY9/zqSkNACVGY1JPX86kqPP70jtgUAZihRpcGP8An5H/AKMrTIB61mr/AMguD/r5T/0ZWnQAzYA3f86WlNJQAwxr7/nXH+IfEuqWWuDRtL0tJriUZjkkfgj6fge9dlIdsZPtXD+MB5Xjnw0Y/wDWZKn6ZH+JoAadD8Z6od+p66ljGf8Alnb9R+WP51keKfCy+HrK31u2u7q7mt7lGkMp7Z6/nj869OPJqK+tob20ltLhN8UqFXHtQBVnuYb3QJLuFt8UtsWB9iKspGNg69PWvPkur3wb9o0nUEkn0ucP9luAM7CR0/8ArV3mn3tpfWyzWlxHPGR1Q5poTG6b/qpf+u8n/oZqZ1UnPzfnUFgQsEzOQAJ5Mk/75rm/EvixBINM0D/TdQk+QGPlE989zTEc94xim1zxzDHYo80WmR5k2c8//rIrp/B1jcRLO1zGUjfGEcYP1xVnwdoX9i6e3nP5l7cHzJ5OvPpW1ICMOOo/UUAcT8UNOhi0Y3kNvGCHCSEDnGeDXWaVs/su08v7vkpj8qh8Q2A1XQ7qyGMyx/IffqP1rH+HeqfatH/s64+S8sv3UiHrgdD/AEqSjakQf2pH1/1L9/cVaAwOKgk/5CUX/XF/5ipnONv1oACgOc0mxR8wz+dOX7tcR4jur7WvE8OlaLdtB9jBaadCcB/Q4/L8aaEztTyK858b+EZo5ZdS0wPNG53yRdSD6j1rTGv69oREWv2BuIOn2qH+vb+VdHpeq2GqweZY3KSeqdCPqKLCOK0TwA0tss2p3Lws4z5UY5H1NUvEngubToJLmxmNxDGNzo4+cD1969OPHWqt4cwluijqT3Heiw7nhhOKTGevFS3AQXEnl/d3nB9qvaNoupau5+xW+VHWQnCD8aQzIn7Co66HW/CmsafH50kKTRgZJiOcfhXPUAFTxptG49aSBM4OPoK3IPC+uTW/2hLBwuMgOQD+RoAxvrS1Jc201rO0NxE8Mo6o64NaHhS2ju/EFnbzKDGXyQe+BnFAFrSvCer39uJwkcEZ5UynBP4VV1nQdR0nD3UQMROBJGcivXOlYWoa5o7amNHuWSQScOT9wHsDTsK5zXw8sNSF79vj/c2mNr71/wBZ9P8AGu8IUmnIiogRQAg4AHakfo1MR3FFFFSUNlZI4WlkbCoMk1R0OM/ZDcyDEty5mb2B6D8sUa2fOSHT163L4f8A65jl/wDD8auoVxtHAHFADqbTqbQAU2nVBc3MNsB5r8nogGSfoKAJap3Yin8y2injE4ZJMdcYIIyPwo2XV1/rSbWH+4h/eH6nt+H50v2O0MfkiEKEOQRwQfUHrmgBEu9riO7TyJDwDnKP9D/Q1ZqlILiGMpMn223PXj5wPcdDUduGWPzNNmEsPeGQ9PYHqPof0oA0KKgt7qKZzFzHKOsb8Ef4/hSXF3FE/lIpmmPSNOv4+n40ATVTe68yQiyTzm6F+kafj3/CmyQvKhk1CREhAyYkOEA/2z3/AJVyWqeJ7/WLs6L4Qh3bOJLwjCRj2/x/KgC/4p1/TfD2nxQXFws92jpJ5MfU/Pn8B9a29A1SDWNKg1C2+7KOUz9w9xWR4a8G6dpebm7/ANP1CTmSaYZ5PXAP8+tYV7p+seDNQmv9CjN3pEp3TWvXy/8APr+dAHoJpK5vRvG2g6lEN94llN3juG2/r0NXrvxJoNtGXl1e0x6JIHP5CgDTk5Kr75P4Vw1lJ/wkHxIa8h+ez0uPy0bsX5/qT+VR6h4g1LxRcSab4Yt5I7cjbNeyDAA749P511XhrRrTQtOjsbbk/fkkPVz60AafSilcgDcTgVSN1LccWSBx/wA9W+4Pp60AM12O3l0q4iuUjdXjICOM5OOPxrm7nwBphk86wuruwkPaN8j/AB/WulKW9qRNcyNJMeAX5P0Qf4UZvpvnjEcCjokgyX+uOlNCZxsvgXbJ/p2q6je2vVgh5H4HOfwrptA0fR9NgDaXDGAeDJ1c/U/0q6l0vmCK5TyJT0z0f6GkuLZDJ5kTGGY/xp3+o70xFim1XFy8JxeoEH/PVPuH6+lSSSxRR+ZI4VfUmgBP9XJj+E9PrXG+NNLmtdVg1vRZRDfOdjxj/lr+H6V1UhuLoYiBgiP/AC0cfOfoO34/lUcsNpHaSxzNgvw7nl3P8zSY0cxYeMoUvdmvW02nXEabMeWSPr69vStOfxj4bjjDnVEOOcCNyf5VZjiOr2nk3lvCFjO2TzEDuT9D0qjqHhjSopIprTTrdGHGDGHB+o/rSGZtx4j1TxCDZeGrOSOI8SXknGz6en863/DGhW+h2BhjPmTSczSnq5/wo0u6FsPIuofsp6IP4D9K1PMTG7cKaExXCsCHUEHqDXnur6danx7aWGjobSUDzbl4nxjv+HH867/52/2B+tcDoaE+P9Z3qfNAAH04/wDrUwR3YTPzO2fbtRLGksbRSKpU8EHvTkzgZ61DcXEVuA0jcngAck/QUCOU1LwLptyW+ySPaSDsPnT8q6PSbGLTdOhs4QNsaYz6nuaJBcTEO+YIuhAPzke57VFcFbV9lo5Mv/PHqD/h9aAH3f8ArPwryHxVa28HiG7S2x5OQ4x0GRnFengte3ZjvT5Z7Qg8H8e9aotoQgXy0wOAMUD2PO/hhp8Nxf3F7Kgc24AjB7E55/SvRDyKEjjj/wBWiJn0GKV+OaBHP+M9BOs20bW6xi5jPDvx8ncGqOgeDEsLmK8ubx3mjO4CMYGf611meaWgDlfHOv8A9nwfYbR/9KkHJH/LMf415uSSdxbmvQvGfhdLoTalY7/tH35Iyc7/AKe9ee0mNG3pnijWLGMRJOJox0Eozj8etGp+KdXvYjG8whjPBEQxn8etYlWBHFDh7hd8n8MXp7n/AApDPpo7scYz70395nqn5U+q2qXP2SwlmAy4GEHq54A/OgCvZf6Tql1ef8s4v9Hj/Dlz+fH4VaQSgtjA5PUUmnW/2Syit924oPmPqe5/OpzQAg3Y5xn2pr7/AODb+NPprUAUPNvLieSG32Rxxna8pGTn2H+NT29rHAxcZeU9ZH5Jpmnf6y7/AOu5/kKtGgCP956pSIG3tn1/pUlBoAjff2YY96ry2gkk84P5M3/PSPqfr61aNJQBnSBppFtL2FDJgvHKnHT9Qas28H2dNkSog6n1P1plx/yE7X/ck/pVqgCKeKOaCSGZBJG4KOh6EVwXhtX8MeNbjw9n/Q70edal+x9P0I/AV6FXCfEQeV4n8Mzx/wCt+1bfwyn+JoA7ZM4+bH4UjZ7Y/GnUlAGLqfhjRNSkMl3ptu7Hq6AoT+IrNTwTodnOZ4dNjuF6+XK5JH0ycH8a6s1x/jG+vYtREEckkMIQEbDjfQBv6WYfs4htUhhCcmIJsKe2KklusXHlRIZ5gOQnQfU9qpeHw2paPFNegmUEgSZw5H1FasUUcKBIkCIOwoApywO486+mjKjny+kY/wAfxoSa5uPltgEi/wCerj+Q70+4RJNThSRd6iN3APTORzViSRIkLyOiKO5bAoAhitUiJcZeY9ZJOTTj5nqlZc/ifQYrmOA6pA8ruFAjO/k/StdqaEyOWNJEKSIHU9QRVJ4bu2cG2bzoh/yzkPI+h/xrQNNNMRXt7hJsoeJB1jcYI/CmpZQRyb44gCOmeQn0HauR8ceLG0rVRYrYxzFESQSb8FCT0qvB8Src/wDHxpkif7kgP9BQB2P2i4nOLVU2f89XBx+A70otUik+0FjNN3d+uPb0pNGkE2kWkwBAeEPg+4qyTSY0UJi1vercBh5dxiN/r2P9KtkH5c8nNQ3caPFJbP8A8tB8mOoNNsJHuLcGbiRDsdB6ikMi1FPN4QI6vwd4yKoRw3Nsd8L+Yv8Azzc8j6GtydN8RUfhWfTQmJbXzSArg7k6o4wRXLapcjRvHMOpSsEtb2PypHPQHp/QV0MX/IQn/wBxP61navpttq9vdw3rkBHxG+f9XwDn9aYzcE01x/qF2RH/AJauP5CmTLDaDe75Y/xvy71wthr2p6Ci2GpI72oO2G8CEjH9a6XTNc0R/wB9/aME0h/5aSSAP+R6UEmoRd3QxJ/o8J7D75/wpkscUFnsj2Id+CT/ABmqWoeLNCtIyxvkmbtHF85NczejUvE8oub2UaVpw/1Ac8u/Y/8A16AOttrdpJD5iIVPXK1ZK3EH+rYzx/3HPzj6Hv8AjXO+GNdnhuRoutMBcj/UzZ4lHbn+tdWaAK8cyzZ8thkdUIwR9RTnztOevtTbyJHjLkYkQEhxwRToCzQRuepQE0AD7j0xTRvB5xinmigBrV47r8SQ63exR42pM4GPrXqWu6nb6RYNczEZx8kfdz6CvIp5Zbq5ZzzLK+T9SaTGh8GIovPPJziMe/r+H+elQ/O79yxP4mrF6V8/yl/1cQ8tPw7/AJ5NdN8O9KSeeTUpkysR2Rg/3/X8KQz3Ws68/wBK1e3tf+WduPPk+vRB/M/hWgSACS2AOtUNDDSxS37L812/mL7J0T9OfxoA0Kjj/j+pqSm4UZx9aAFprU6mtQBU07/WXf8A13P8hVo1V07/AFl3/wBdz/IVaNACU1P9ZJ9f6U6m4wS3rQAtNpXKgElsAV55f+Ob7+25rjTrB7vRrT93PIg6n++DQB29x/yE7X/ck/pXNeKNav4NUa2tpPJjjA6DrVzTvE+iareWklrfRg7HzHIdjjp2NXtXTQpcXGoSWg2D77zAf1oAk0K7lvtLhuZlxIcg++D1rktQf+3vibaW0Lb7fSk8yYjpv/8A14H4GjWPFTXL/wBj+DoXuLhxtMqDEcY9R/j0rc8FaDHoWnsjv5l7K2+5kPc+n0oA3qSlpKAEbpVW4toLqVRcQpIEGcOM4qyeaydb13TdFt2uL+cIXPyRjl3x6CgDVRQiBFVQB90CmN/rvwpmn3dvf2UN5auHhlTeDUxHz579KAKj/wDIUi/64v8AzFeRfE97hfFd1C9zM8WEdELkhMjsK9cuHSPUY3kYIqQOST0AyK8Q8X6kureIbu9j/wBU74j/ANwcCgDLQlCCGwRyDXtngvxBBrumRsXC3kYAmj759R7GvEqktri4tZ1mtpnhlTo6HBFAH0MaoaxqFppdobu7lEcSA/Un0HvXlEfjfxJHFs+3g+7xoT/KsXU9Tv8AU5fOv7uSdh03ngfQdqdxWHa/qEmq6rcX8q4Mr5A9B2H5VTprfdoJ/hHJpDPbvB97DdeF7GaNxxCI39iODWp879PlHrXjXg/xHc6Dccr59vJy8RPT3HvXo1p408PTxB3vDAe6SIcj8qAN8xrsIHX171zOq+JNO0nxCltcu6eYgMxQZCP2/T+lVNd8f6dbwMmmA3Ux6ORhB/U15jf3Ut1cyXdzIZJZDlye9AHvNld2l9AJrSeOeM91Oar3C7JD6HmvGfD99fQ6nAmm3E0c0jhf3ff8O9esXP2m6jDXDeXGP+WaHk/U/wCFNCZX+0/8TGdLdPOk2IODwOvU0lla+ZcXL3R8xhN9z+AfIO1FufLvJkjARQicAfWktXcy3XJ/13/sgouMvTxwyxmKZEeM9Q4yKwb3w14ekO82KISf+WbkVqE800jPWkBSstF0SzcPDYR+YOjv8/8AOqniCG5ubxXjR5F2YAHOK13P8I61c0yPAZ+/SnuBjP4dW/8ADghvP3FxGTJDIesfsfajwNrlxqEUthd5kmtuPOHKOPr6/wA6b45u55prTw/Ytia8P7wjsn+c/lW9pWn22l2EdpaphU6nu59TTJJ7j/USf7hqKH/jzi/3B/Kpbj/USf7hqO3GbSIf7A/lQA815nqHizW4ry4hjuQFSRwP3YyBmvTDXjGur5WsXqHtO/8AOkxoiv7y6vJfOurh55D0LmksPluon6kOH+uKhA/iPWp7EgXkO/7u8A/SkMpJK5fnnNeteDolh8MWmP40LH8Sa8qMKxyFSvIOK9Q8DXIufDcAzzFmM/n/AIEU0DPRddcm1WzjLb7p/K46hP4z+WauRlERURCABgDHSqVv/pWszT9Y7YeSn++eXP8AIfnWjSAKi80Enh+DjpUtMQMN2fXNACg5G7n8aa7bexP0FPptAGeHmtZ5XWF5oZH3HYPnTj079KtQTwzx74nVx7dqmqrcWiSSedGTDN/z0Tr+PrQBL5g9H/KgPuJ+XpVX7VLbDbfIAn/PZfufiO38qnMiRpJM0iCM8hyeOlAHG/EPWLmaeHwto+Te3n+uI/5Zx/5/StzRLPT/AA/o8OnxA8Dn5PnlfucVwgfVfCviGfWL+P7VaX77Gv8AyzvQE9gen4+lek6Ylo8C3ds/niUBxMWyXH1oA56/8GaNqlwbu501LTj7kJw5PqccVBB8PvDccgLw3s3s8hx+ldkaKAKemadYaZB5Nhaw28foi4z9fWpZCpJG18joRUtMw3mE9ttADEkP3ZBj0PrSu2PU09sYOelQgNHyNxX07igDB8d6zfaNoEl5p9p5kmcF36R574714reXVze3BuLqZ5pT1dzmvoDVbeG/0+WzkwYp0If6Y/xxXz0RglaAN3wt4r1LQHKQsJrUnJhk6fUeldknxPsjHltLuBJ6CQY/OvL6KAOl8WeMr/XH8pEFpb4KbEOS49z+Fc1RTenSgB1FGaKACqGq3UkCosXBfvV+obiJJ8JImQOaAKlhdvNGwl5I7jvVvzMdFoitoYk2Rpih42HTkUAN81vu/dpCzHvSUn0qShSabSj9aWgDU8GSpbeKLF5Pu+ZgfUgj+tevS3EcafvSQDxyOteG5bIZWwQcg+hr0nwd4msL6JUv5Vj1EcF5W4f6Ht9KpMlo24A/2iaZkKAgAA9eM/41HbSfvbr5X/1np/sCr1wV4fcMetcjrnii00w3UdqyXF08mRg5QcDqaAOoqOWTy/4STWfoGtW2r2fnRfJKOJIu4NaDox5PWgAj/HP0rWjXyrdV796o2cfmXCjsOTWo/UVRJyNmVuPiVdvID+4tRsHpwn+JrrTXIau/9keP7W/k4gvY/Kd/Q9P/AIiuvNAEFy37iTg9D2ptu3+hxHb/AAD+VOvJUjgYO3LggDuTSRqwto0K8hAMUAOc4rm7nwppl/qc99c+efNOVQHA+tdE/wC8Oz+Adf8ACn0AcTq/gWDyi+mXDiQf8s5TkH8a4aeKSCdoZkKSIcEHsa9tavPvibaJFqFvdquDOhD+5Hf9aTGjmb35nW5HSUZP+/3/AMfxrX8F60ul35juDi1n4c/3D2NY1vImwwSnEb85/uH1qOWJ4pCjjn+dIZ9LaVbG1sIopOZT80h9XPJ/WrVFFABSUtRxfxf75oAfTadTaACm06m0AFVUsLVJfNWEZByBu4B9QOgNWqjT70n+9/SgCLUbS3v7KWzuoxJDKNjg1xvw3muNO1PU/Ct05f7G/mQE/wBw/wD6wfxNdya4YcfGQ+X3sv3n5f8A6qAO3NFFIaAEpDS1x/xI8Tf2JZm0tX/065TCf9M07v8A4UAdaeaK8a8OeP8AV9KgFtcgX8A6eYcOP+B/41s3PxRPlH7No4EnrJNkD8AKAOs8aarHo+j3d5vCTlPKhH99yP8AP5V4UDnr1rQ1nWNQ1q5+038xdv4EHCJnsBVEjNABRVK/u2tcKBvY1JYXS3UZbGCOooAs0VPZWlzfXC21pbyTyv0RFya73w/8N3cLNrVz5Y6+TCefxP8AhQB52FZiAAST0xWxp/hbxDfAGHTJ9p/jkHlj9a9j0rRdK0pP9BsoYSP48Zf8zzT59Tgh/wBZkAtgepP0oA8xi+HWtlN881lF7FyT+gp7/D26iPl/2lBJOefLjjJx9fQV6QRc3cm1828I5IH3z/h/Olle0sBGuAmc4QDLuf5k07CuedP8NdU2Bhf2hb0OR/SuV13S7jRtQNldPDJKACfKOQK9t2Xl3/rGNpD/AHAf3h+p7fhXiniS4iutdvJoVAi8whMeg4FKwzMMav8ANUTqU61Piuu8IeG7HVdHmuL954C8m2GZPuDHXNAHE0YrpvEngzVdJDTIgurcf8tIu31HauZIx1qSgpp4O6nUUAKWcx7N749M1XPvUw4+WonHO7t2poTLmhXN/a6pDLYZecnCxj+P2NetWk4miBOEkx86d0PpXG/DKzRpbq/dctHiNPbPWuyubdJmDciTI2uOCKYjW0yPEZlPfgVaP3hVaN5rSNUmHmRgf6xBz+I/woe6WRwtqvnH1z8g+pqiSp4n0u31XSpIJnEZHzxyH+A+tc5pHiS5sTHpWtf6PKnCXTgkOnY//Xrr0tsuJZ385hyP7g+gqpqkNnqcZtpLSO7A7v8AcT8f8KAJrc2gj+0xzpMCOZi4OfxrkNX8WTQX8ubgW8KOQgkTAcD61cfwLp4O6O8uoSeuwjA+n/66YPh/oIlNxdC4upP+mkmAfyoA2vD2sWes2X2i0Y4ThwRjnFadcRsbwz4sjSCMCzvQE2ZwAfb/AD3rsYLhJSU+ZJB1R+CKAJGrzf4jahHd6rHbRHK2wIJH989f6V3us29zc6dNDZXBt53X5HH8q8fvLee1uZLe5QpKhwwNJjRFU0Uw8vy5k8yLtzgp9DUNaVpoOsXUfmQ2ExU8gn5M/nSGfSNFIQCNpGRTREgP3BQA40gCjpSmo0RHzlB1xQA80lACjgLtFI6K3Vc0ABpKaI0DZCgVHf3MdpZTXcxxFFGZH+gFAExpoHX3rmdP8aeF72MN9tS3bukw2Ef0p97428NWUbMdSjmx0SEFyaAN+5mitoJLiZxHFGpZ3PQAVw/w+EmreIdW8USoRFKfJts/3Bj+gH61VnfW/Hk6xx28mm6GDl5H+/L/AI/yrvNOsbbT7KK0tIhHDGNgAoAsUhoIUjaelMMaf3BQAyW4iifa7c+1eK/EbTtWttclv9QYSxXJzDKn3Mdk9sV7Bd20hlLqMg1Q8R6THqHh68spUBk8syIfRxyKAPB6a/THrxTqb1f6UAOooooAq39qlygYlgU6EVpeDNItr7U4bCW8S1WV+ZH7n0HvVST7hpkBxJ9aAPoTQ9F07RbXyLCAJ/fkPLv9TWhXn/w+8XJd+XpWrOPPHEEz/wAfsfeu+ConIGKAAjIIPesO/t1t7u3lllQRDeSSfar8955hMNnF9ok6E9ET6n/CqT2AfVLR7p/PYbzjGEBx2FAE8c1zdJi0Ty4z1mkXr/uD/Gp7e0ht383mSY9ZHOXNWOn0pkgUyDKrzVEmf4pvv7P8P3t2DhkhIT6ngfqa8Kr0/wCLl2sOkWthHwbiTeR7J/8AXIrzCpKCvaNDs/sHg6K2K4YWxZ/qRk/zryfw1Zf2hrtnabch5hv+g5P6V7XqH/IPn/65v/KgCVf9Wn0rj/Fvgmz1ENc6cqW931ZOiP8A4GuuCIUGB2pflUBQvBNAHgF/Y3NjcyW1zE8cqHBQ9RVWvcPFnh201205Aju0H7uXb+h9q8b1OwmtLyW0uYjHLGcPSsO5RI3H2oflM090YUw/3u3ekM7H4YXaB7qxc4Z8SJ79j/Su/sI/MuAx6JzXiNpcTWVylxA7JLGcgivSPDnjXTmth/aULwTHq6LlD/WqJO6amdDXN3njXQbeMtbvJcN2RIyP1NauhanDrOmR3kYxv4dM52EdqokkjQ3WXmf91vIEY4zg459atAKgARQAOgFQWCJ5B+X/AJaP/wChmrBoAa1NP909KUqhPK1n67qVvo+nSXUvbhE/vn0oAzfHtpFc6FJKXRJbf95GScZPpVjw5dxazodvcycyAbHI4IcdaxtM0W612Qapr8r+W/MNsGwAK6e0tLSwAitYI4YieiDGDQAsJlW4MEj+YNm8Oev41neI9BtdZi/efu50HySgcj2PqK0f+X//ALY/+zU/an92gDkfCnhRrK9ludTRJGjOIR1B/wBuutal+lNcKfmIoA7nJ/u1japLMLsrkoB0wa1bu4itbaW5uHCRRIXcnsBXmkPxUt2Ev2vRy5DnySjjp2znvUlFfxx418RabqJ023aG1UIGEoG93B789K6TwR4x0u90OL+0dShhvYxibznCbz6j1ryPxHq1xrmsTajcqEMnCIOiAdBVNLa4ePzUgkMf98IcUAela98S5bbxARpaQ3WnoADvGN57kGvQPD+pprGkQahHbyQJKMhJOtfOFe0eD/Gegnw7bRXV9DaT28IjeOTjoMZHrQB2dch8Wb5rbwv9ji/1t7MIQB6dT/LH410Olajb6rYx3lg4eB84c+xx0rjPF7Q33xI0PTbiYeTbDz38wgDPUD/xwfnQBj6jYWUTxWT2FqfsiCInyxmQjqSe+a7bw/4e0FLSG9i0e1jkkQPym/HHvWle6Npt7L9omgBk9QcZpySyW/7l1BCccccdqALgGBtHSkNRxzxv3wfepKACkNLWH4g8S6VoV1BBqEjoZwXBCZAA9aANpvu1leJL6LTNDvb2VgAkJA936Afmayrz4geGIYi8d49w/ZIoTk/nxXmnjTxbeeIpREI/s9nGcpFuySfU0Ac1cTJCm+VsCm2lxFcBjG2eeR6VDqdrJcxDaw3A9KZpdpJb7nlxk8YFAF+tvwZoE2v6utuMpbx/PPIOw9PqaxY1aRwiqS5OAB3Ne6eCtDTQtDitio+0SfvJ39X9Pw6UAedfEXwg+jZv9PDvp7nkdTEf8K4WvozXJLaOyIumTyn4IfnPtjvXjXjHw3Np7tf2lvImnueA/wB+P6+1AGAj9COvXivSPA3if+1Xi0jWrpwwGITnAl9nPr/OvNLc9VqYEghg2CO9AH0PhIYgI0AUdAOKrSjZeWmevzk/lXH/AA/8Yf2gYtM1SXFwnEMp/wCWvsff+ddje5SWC4CO6xk79nJGR6U0JlmoyP3g9BSxSxTIHidXX1FNuZUhgklkOFRCx+gpiPJfihffavFEkIOVtkEf49T/ADrlan1C5e7v57uT78shkP4moKko7T4SWXm6vcXrji3j2D6n/wCsDXo+o/8AHhcY/wCeb/yrnPhhZfZvDQmK4e5kMhPt0H8q6C/lQwS20eZJnQgInbPr6UAWI/8AVj6UOM49jQgwgX2rkLnxPeC9by1jEIOAhHJoA62QljsT8T6Vzfjnw6mr6f51sgF5APkx/GP7ldFAVMSuvQjPNPNUSeAOGBIZcEcEGoni54rtviZoq2d+NUt02w3LfvAO0n/1645qkozbiaOKTY7c1fjKPGpjbK44NZt7YyzXBkiwQeuT0q/aRfZ7dYickUAOkOELCuo+GGrS22qPp7sXjuOQP9sf/W/lXPWdrNe3cVrAm+WQ7AK9S8NeE9N0hI5jGJ7wcmV+x9h2oBs2NOYPbnB/5aP/AOhmp6r2katAW5DeY/I/3zT/ADHj/wBaMj++P61RJJXH62n9seNbXTX+a3tI/Ncep6/4V16lSMhsiuS08+V8RdRWTgyWwKfklAHVYpDtIINOqnqGfl/u0AEZ/wCJhsPUQ9fUZqxWdZhzeE+kfH51fQ7k3UALTT0NOqtdz+XhI+ZD+nvQB0mr6Lc3+nTWEmpvJBKuHEiDOPqMV4l4x0Kbw/rbWEjpICgkRx6H/wDVXtHijxEujaHLfrbm5aMgFA2OvGc14d4i1i817V5dQu9iM+AETogHQCpKN/4a6TYX17Lf6rDI9pbY2gRlkL++O1euWWpabIhhtpIMA4CEhMfga89+CeqWsM93pU5AlnIkhL9yBgj+Vel3FrFLnzUhdT1Dxg0Aeb/FvwzbQWY1yzRITvCzpGMIc9DXm0UTSSLFEhdnOFAHJNepfFuTTbDR10+3AS7uHBKRkgBBzkjp1rznw5djT9cs76RwFikBJKb8e+KAPX/hfpOraNo81tqaJGJJBJGgfJGRzn9KveIPCOia1cNc3cDi4dQDLHIQeOntUthql5dQC4tHsdShPe3cj/EA/jU51OZf9dpt1D748wf+OZoA42ePxB4EkE8dxJquiZw6P9+If0/lXaWF7aapZLqNo4khkGQfbHIPvUZu7C7jaCa/hKyAo8TjZkemDzXJ+BlXQvF+o+Gi3mW7r59qTz/nj/0CgDrpQoG+PLqfQUxJZl+7x9TV5wyycFRG/t0NQTWxGXVsj0xQAiXBP+tY/wDAOK8Y+JF8l/4tuthzHb4hTJz06/rmvXn3duDXn/iT4etM815pt47zuxkMcv8AGTzwaAPPWo/iqOdJ7W4kguEKSxnDo/UGgSKevFAElFC03PpQB2Hwr0pL7XzfXCj7NZDzCT039v6n8K9UN7NdNs0+IFe9xJ9z8PWuZ+GmgpF4cgubkl/tJ87yj9z0H14H612vQYHAoAyp7OKIrNK7Tzn/AJaSf0HaoJo45t0MqB43QgoRkEVevw+VG8flVYD160AeTeN/C8mi3H220UvYufxi9j7VzhOBXu9zClxE0Mqo8TjDo4yCK8s8X+F5tIkN1bZksd2M/wDPM+h/xoA52PcpDAkEc5HrXqXgDxgL9F0vU5QLsDEcp/5aj39/515bR8woA9h1zxPoGnyswvibodRbDfn69q5fX/HqX+kT2UVnJHLKhj8wkYwevH0rhqKAGSHCbqS3LyzxwhctIQoA9aUjI27uKS2L21xHcQuRLGQ6H0NAHu2nWs0Wn29qM28EUYTA++cD9KuxRRQpsiRQP51x3g/xomoAWmpsEuh0cJxJ/ga6n+0rb/pp/wB8GgC1WPeaJp73a3RhOfMy6Z4NW/7Qh/vv/wB+zVS88RaPbIRdXiIfQ9fyoA16K429+IOkxRhbZJ7iQdfk2DP1P+Fc9f8AxB1WXK2sMFuPXG807knoPiHT01TSLiybGXT5D6P2NeIyh43MZXDA4I9KvahruqX2ftd/O49N+B+QrOB7nqaRQoGOKXtTSePegHigDr/hZAkmuTTMMmKA7PqSBXpVeReCtVi0rXI5pjiGQeXIfQHv+deo/b4Cm5S/PQ7DTQmPMU0JLW53qSSY3/oadFOkpKcpIOqPwahN9F/ff/v2abPc2swCyK/HQ7CCPoaYieMKJZVHA4rlvGsE1jf2niG2QnyP3c4HdP8AJIrXS9eKdsl5ozjnZ84/xqSXULOWBoipn3jBj2dfrQBZsLu3vrSO6tnDxSDINNkn8z93AnnHuf4B+NcXLp+o6VK02juZLeQ5ezfOP/r1ci8YrCAl9pV1AR2ROP1xSuOx1MEPlkySPvkIx6AD2FK/ynf2PX/GsXR/FFrqdzLbxwTx+Wm/5x1/CtM3cWPvP/3xTETyFVQseg5qlaI0oaZv4/8AOKiu7tDA0CM+T3xjipkuYVjVF3gAY+5QB0Wr6fDqGmXFg/yRzoVOB096888QeEdLsLIW9tNdSajsyXdx5Z/DGa72zlmtLkWVy+9X/wBTIe/sah8QaK2pAyW9wsFxs2B3TI9sipKPCbS5Y4lj3xyI2OOoI966SLxv4qjt/s66rJtxjLqhf88ZqW0+H+uW2sQaXPbuEnk+a6Qb4/UnP9DXban8MNMGlv8AYbm4F2iEo8hBDn0IxQB5TJJd395maWa5uJTjJbJc11Unw48RR2H2vybZ5MZ8kSZk/wAP1qj4K0zVZPENldWumz3CwThnOzCDB9TxXvQORQBieC9G/sLw9BYnb53+smI/vnr/AIfhW1SmkoAjlijlG2WJHHo4zXn2q2VsPizpkFtF5Cm1JfyTs7SelegzyxQxNNK4SNAXdyeAK4TwVv17xhqfigoRap+4tc9+nP5D/wAfoA6x7C5AIh1KcD0lAkH+P602NtXjyrpaXJT0JjJ9+9aVQ3BVcPuAI9T1FAGbcXEg5l026jPrGBIP0Of0quNTsSdjziNvSUGM/rWq1/ZAbjdQ/wDfdUdQ1LSnjPmyA4/2CaAPNPi7YQrcWmqwbMz5jkI7kdD/AJ9K4Fq7X4o3tpLLa2trYm3YZkdimwuD04/OuJ+agBQW+lTQF5JFjAyXIAqD5v8AZq94fjMuuWKfPzOn3Bk9aAPoTThDb2UFpEQBFGIwPoMVZcgDlsVyYktS2241C6Q+kmY/5irkFtZn5kPnj3kJoAvajdWySjfcRjj++Kz31OzEm3zs8dgTUskdmJv+PaNfwzUsaJnMeMYxxQBUk1JMfura4kPbEdEcsk0bWkmm+ZDONjiRwAat/fkz2H86r6nc/ZNPnuv+eEZk/IZoA8e8S2kNhrd1aWzZSN8Y3Z2H0z3xWdz/AHqfJK88jTSHLSHcSfU0lABitS08Na5dRiWHTLgoehddmfzrt/hp4Zgjso9YvYg80vMAcfcT1+prunHIPpTsK54HqGnX2nuEvrOa3J6eYmAfpVPHNfQV/aW19aSW13Ck0TjBRxXi3i/Rm0PW2tAxMLjfC57pSGZUTvFIssZKMhyCOoNdhL8QdXNtHFFBbpIEAeQgkk+uOlcdRQBqah4h1q/z9p1Gcqf4EOwfkKyyc9aKKAGjqV/GnVZs9Nv711+yWc83zYyiEj8637PwLrc2PP8AItQf775P5CgDlepx2FOr0nT/AIfabCAbu6nuCOw+Qf41F430HS7DwxJJY2ccLJInz9TjOOp5707Cued02nUw0hi10GheLNU0qMW4ZLiAdI5O30Nc/RQB6T4f8ZNqurwWBsBD5mfn8zPQE+ntXWmvH/B7eX4n08/9NgPz4r1sy7jiJd/v2FUSIn+vl/Ch9qAsFANJlYsl3Ls/oOv0FJ5gf5CCjHsaAJKaeTTqhllihj3zSpGvq7YFAHMW/wC5+I9wOglts/oP8K6aQ4wo6npXJz3dtL8QrSa2njnUwFSY3B5weK6xBjLHqaAIL6HfZyIPvYzn3pbaXzbdX745+tTNVAH7LcFD/q36GgDpdZhEthI2cNGPMQ+hFcrp3iLxDc+fq1vpqXukeZ5aRpxNgAAunqM5qW503xTr0HlarNBptmfv29ud8kg9CfStDQLN/wCzo4obieCBGKIkYAAFSUdF4f1rT9ashPYzh8cSRnh4z6EdquvNCmd0qDHqcVxHijQbCy0ybXIb+ayvYv8AlqTkS/7BA65rZ8MRR3mkQ3d5pH2e4cZeMnOP1oA131Kwj63cP4HNQHWLPP7vzJM/3IzVuCC0H+rghQ+mwU4sPuhc+woAzL3WktLSS7ls7hIYxl5HGABXO33xF0uKMtHskPYIST/KtnxufN8JapFtORbE/lWf8PNL0hvDGn3n9nWhujHl5DGC5IJ70AYcj+J/HIEAh/svR85dyCDL/j/Kuv0zR3sLKKytr0xwxDASOMD9a1/N7bGz6U2MjzG9fT8KAKf9lof9bdXUn1koGl2C8mHd7uSafeahFDL9njR57gjiOPk/j6VAltNev/xMXwva3jPyfiep/lQBn6jqOm6dFJNDDB5IOHuHT93Gfr3/AArm9W8baLaIZbUvqt7/AAEpsijPsP8AP1rd+J8SHwPeRqoATYQBxj5xXiAPY9RQBZ1W7n1O9lvL2UyTSnJNZ7qUNWaaRnrQBXrY8Ff8jXpuf+e4rJkjxyOlXvDcy23iDT7hiFVLlCSewzzQB7qwUjBXIqtJp9lIdxto1Pqg2H8xWRqHjLQLTIN55zDtEN/69K53UPiOvIsNPPs8z/0H+NAHVz2bJIfJvLiP2L7x+tVrq5ubFN8t5aY9Zf3f65rzTUfGOvXrtm68hT2hGz9etYc8008plmkeRvVzk0AeqS+PNLtD5UuZyO9ud4/PisHxD4/GoWE9jbWHkpKmwvI/OPoK4agc0ATxSqmUP1qZTvHHSqZtmB3n8qtRrsTG6gD6A0bZ/Y9l5X+r8iPZ9MCrRPO31rz/AOHfiOaW0j0iW5t0miXEIlBG9PTPqK7A3N5G6tLZZA7xSA/zxVEl815x8Y9n2jTf+emyT8uK7a41iytommu2ktVHeVCB+deR+Mda/tzW2uUyIEHlwg+nrSYGPV3Q9Mm1jU4rCF0SSTPL9BgZqlXY/Cux8/WJ7uQfu4IcZ9z/APqNIo19P+HVmuGvr2aY/wByMBB/WugsPDehWGPJ06Et/fkG8/rWiXlj5CmRB+Y/xpUlSVFdG/i5HpTQmZnii+ksLCMWygGQ7QcdKq+FtTub6WWO6bzGRMh8Y/Cte9hhvUMM0fmRDk/WotOtba08yO2h2A8k9f8APemFy4efpXP/ABD/AORTu/qn/oYrfyuOK5f4kz48LyJg/vJEH65/pQI8tptOptSUFbvhfw3c6wfObfHaA4MgHJPoP8awsZIxXtOnxw2OkWsFrsKhAg/LrQBmaf4V0axeOd4cyRkEF5Dwa2svJ/qx5a+pHP4Co0ZCd215m9R0FPnWWWCRBiPeCM9xVEla3vtPNwbeK5QzHjr1/GrUgBQ7lyK4620bUF1CNHhKKHz5meOPSurv5xBYT3Mi7VjQu34UAYviTW5NNkjsLBPtV7PwkfXZ7mqVn4YN+ftevX81xN1MQOAnt/8Aqp/ge1ecTa9dLvuLlzsP9xP8/wAq6NwJnGUIA6GgexnafoGk2lxHd29mI5U+4d5JH61q0xC4k8p8HjINKW/2DQIKinjSWMrIvFS/w0xzweDQBt3l1FHp8lzG6OMcEHIJpNIhaDToYj1xk/jXhOh67f6XcK0UpkgDhnhc/I9e7aVdm/06C8NvJbmVA/lydRUlGTdr/avjiy0yfm1soDeOnZ3zhM/TrXT2f/HxN/nvXLvINN+Itpcy8Q6haG1DnoJAcgfjXS2B/wBInz6n+dAD7b/j7lptr/x+S0tp/wAfktFv/wAfktAGdrsP2jT9ThHV7aQD8qxvhPL5nhq3XPKNIn/j/wD9eulJjFxP5rBI8HJJ4xXnlp4FhmuPLsdSvRFnPnfcT8B3oA7+4ure1vGeZ8DoB1JPsKrD7ZfXxzvsoT/38Ix+lck/hzxNol6bvRdTbUXjH+quRkkegz/9atvwh4mj1q9lhniNpqEf+st39hzigDbtraG1u9kKBB39Tx3NSv8A8fwpf+X7/PpSP/x/CgDO8S6f/atncacHCGePYHPY157qHw1v4sC21CCeXGdhQpn2716lJ/x+rSS/8f0dAHz9qmn3mmXJtr6B4ZOvPceo9arV7P8AEPR49T06Vdg86NDJC/cEdR+NeMVJQhqOSP8AiFSGk9Kokr0VP5DyuFiQux7AZzWlbeF9cuMN9gkhU95vk/nQO5gPRXbWfw/nJU3d4OeNkQz+prrrLwFoVi0bzW7XDYz+9fI/LpQI8itrW4unCQxvIfRBmulsPBWvTIH+wmBT/HMdn6da9ge1trW3VLWCGBPSNAKlvf8AVLQB454p8LX2g28E1w6TxS8F4wcIfSueTpt9OK991i1gvtMNtcxCSKTgg15J4v8AC13oMonQ+dZSHCSdwfQ0AYGcYYda1rfxPr1tAIY9Sm8sdA+Hx+dZHag0AWtR1O/1Ahr68mnx0DngfhVMjpS0N0FABjivQPhtexjTprC3mjjusmR0kT/WfQ1wHanwSyQSrNC5SRGyHHUUAe2ia8S2O+1Rx6xyf0NQS3cItiXjnhlwQCUP8xWb4O8TQ6vp5tpyI72NOR2ceorcBb7NvPfIA9qAI9PubeSwAWaN2Iyeaki4j3euQaightjp4M0UZynUgVCLWM2jND56EcjY5A/WqAu2/wDqmrh/idc4srO1B5eQyH8Bj+tdXbRX3kForpNvpImf1GK8x8a3T3WuypIwcQL5XB496TAwy6/3qMt2X86Bx2xRmoABuBDbsY9K9X8N3MN1aQMuCHIcZ5xwcj8DXlNaWga1c6RdpJH+8iD5MZbrTQ2eu2v35KlNYPhjXodVSaWK3kQR4398ZzW9lT8w6VZLI5R8nHUcrWX4vJPhi+K94f0rWNUr+JZ7K4sz/wAtEK/QGgRS8KYPhyxSPp5Iya1+i4Fct4CujbxT6HdfJcWjnAPcZ/z+ddSaAIj/AMfI/wBw/wA6caYf+Pof7h/nTzQAjUlBpD900AeQ+FI4ZfEmnRXKjyjcoHB6delfQFfNWoXBs5Y2UZZ8lSDjaa7XSvi5cW9slvqOlC6lQY81Ztpb6jFZlNnqusaXbatZmzusgEgpInWN+xFZGn6jruhySQanps+qQg4F1ZjLkf7aetc/oXxKbUklkOkeXsl2qBc9OOP4frV+T4hrZxT3b6SXAPQT8/8AoNVYV0aaeK5nkmOn+H9VuJcHiSHywPqTVvw/rrapbRXNrbGSeVMugOEjPfJrjIfiFJfSNJLprR20nSKO6wT9Tt/lVLwV48TTW1GzXSMxRXchjAuMYXqB92iwXR6ZbWJlvmk1BxOw5CY/dp+Hf8auxj/TZB2xXBxfEX/Snb+x+v8A08n/AOJoh+Ii/bHb+yG5/wCnkf8AxFFguju4j/p7KeoFcb8RNNktrkeJdM/d3toQ8mP4046/56VAvj/N20g0nr2Nz/8AY1Dq3jY3NveQPpa7ZYXU/v8APBX/AHaLBdHaaPfxanBa38X3Z4w2PQ45H51ab/j+FeQeAPHc1losMDaeJBG7qD52ODz/AHfetib4lMt4GOkv+F0P/iKLBdHo0v8Ax/LTZf8Aj9SvM5/igq3ak6HIf+33/wCwqC6+K0a3alvDu7jODe5/mlFg5kek+IJ4ba2mmuGAjjhJOfoa+fvMGTlhmnePfjMdRuBo9v4f+zRscSv9qBL+3CD5a5ZvFh3AjT+n/Tb/AOxosF0dPvXPf8qM+xrmR4s3Y/4l/wD5G/8AsakHigk/8eA/7/f/AGNFguj034Z6n9j18Wkijy7vCAns46f1Fdf8QftP2y3ZgRDs4x0zXhEPihkkSRLQq6HcpEvQ/lXsenfEJtS0S0uZdKG9ozv/AH/Ug4P8Pc80WHdHTeG1mGkxtMhGXOwnrjitm/H3T+FcY3jYmJVOmD5T/wA9/wD7Gn3XjYPtH9mY7/6//wCxosK6Oxvf9WtNvf8AVJXI3Pjbeij+zMf9t/8A7GkuPGu+NQNNx/23/wDsabEmddd/6hK4P4w3v+h6fp6nlyZn/Dgf1q7P413RKP7M6f8ATf8A+xrznxx4jfVNdlma22LHGsar5mcdz29c0MEykDlAa0NA01tV1SGxD7A+SXxnAArnf7S2MEMPXphun6V1fgDWUsrm6u2sxIwjCL+8xjOSe3+z+tKw7o6+0+H+mxhnnu7ibGOBhBWtPoGkRQQ2cdlGIpUcP6n8etZZ8a7fMUaZknH/AC3wP/QahufF8kk1v/oAXaD0m/8AsaLBdHLeKdAudEuBnL2sn+rl/ofesPcuPX6V6Nf+I7W/0ySzutI82NuDuuM4PqPlrx/xd4h/sHVPsYsfODR+Yjefg7cng/LyeKLBdG7BNNDOssLmNozkPmvUvCGvxa1YGGeXy72IEmMcBx6ivnpfGoI/5Bn/AJH/APsas2njua3mW4t7AxyocqRP0/8AHaAuj6cskQWAwBnZ/SnQf8e7D615j4U+KZ1LTkjk0bbKo2M/2jj6gba15fH4g3QnSi3XJ+0Y6/8AAaoWh02oX6aXod3cyf8ALLIQepPQV47JI0kjSSNlnOSfU0vjj4hS308dkunGKKPDOPPzuJ6fw9ua5pPEwcY+xY/7a/8A1qljujoaKxI9f3f8uuP+2n/1qnj1fef+PcgdAA//ANalYd0aeKQ1o6Kln5K3N9bPMrfdRJtv5nFW7qbR2jbytFZCv/T2ef8Ax2nYV0bHgRZraOF4gS0r5I9RXa291sjKyW8yAE4wMjr7V57aeLorKFDaaSIxHtTd9oy2Oh/hrTX4gIiBV0g4A4/0n/7GmkJtHZfbLY9Jkz6Hg0pGPnJzv4JFcOfH6SDdJowcdgbjp/47U/8AwlFtNbh10totw/guMYP/AHzTC5r+JNClu5Y9S02XyNQi6HoH9jVSz8WLA/2bXbaS0uBwX2ZQ+9VY/FUoUNHA4Ho0oP8A7LWb4l8UvNo88MmnQtuUKGL5K59OKAudzZ3dveFbi1kEkRQ4cfWrFcD4d8VR2unW9uunEiKLk+djcTz2WtU+L8D/AJB3Hp53/wBjQFzqKRulcv8A8Jae+n5H/Xb/AOxpreL2LOqacAV6kz/y+WgLn//Z;imageBorder=default;strokeWidth=3;opacity=50;fillColor=#F2CC8F;strokeColor=#E07A5F;fontColor=#393C56;" vertex="1" parent="mUsElW4PzbGTxgSbUnpJ-4">
          <mxGeometry x="-40" width="900" height="1160" as="geometry" />
        </mxCell>
        <mxCell id="1" style="locked=1;" parent="0" />
        <mxCell id="aRZi8F_NBcynCKokoT6K-4" style="edgeStyle=orthogonalEdgeStyle;rounded=0;orthogonalLoop=1;jettySize=auto;html=1;entryX=0.5;entryY=0;entryDx=0;entryDy=0;labelBackgroundColor=none;fontColor=default;strokeColor=#E07A5F;" parent="1" source="aRZi8F_NBcynCKokoT6K-1" target="aRZi8F_NBcynCKokoT6K-3" edge="1">
          <mxGeometry relative="1" as="geometry" />
        </mxCell>
        <mxCell id="aRZi8F_NBcynCKokoT6K-1" value="&lt;font face=&quot;Comic Sans MS&quot;&gt;Відчинити двері автомобіля&lt;/font&gt;" style="rounded=0;whiteSpace=wrap;html=1;labelBackgroundColor=none;fillColor=#F2CC8F;strokeColor=#E07A5F;fontColor=#393C56;" parent="1" vertex="1">
          <mxGeometry x="280" y="120" width="240" height="20" as="geometry" />
        </mxCell>
        <mxCell id="aRZi8F_NBcynCKokoT6K-2" style="edgeStyle=orthogonalEdgeStyle;rounded=0;orthogonalLoop=1;jettySize=auto;html=1;exitX=0.5;exitY=1;exitDx=0;exitDy=0;labelBackgroundColor=none;fontColor=default;strokeColor=#E07A5F;" parent="1" source="aRZi8F_NBcynCKokoT6K-1" target="aRZi8F_NBcynCKokoT6K-1" edge="1">
          <mxGeometry relative="1" as="geometry" />
        </mxCell>
        <mxCell id="aRZi8F_NBcynCKokoT6K-9" style="edgeStyle=orthogonalEdgeStyle;rounded=0;orthogonalLoop=1;jettySize=auto;html=1;entryX=0.5;entryY=0;entryDx=0;entryDy=0;labelBackgroundColor=none;fontColor=default;strokeColor=#E07A5F;" parent="1" source="aRZi8F_NBcynCKokoT6K-3" target="aRZi8F_NBcynCKokoT6K-5" edge="1">
          <mxGeometry relative="1" as="geometry" />
        </mxCell>
        <mxCell id="aRZi8F_NBcynCKokoT6K-3" value="&lt;font face=&quot;Comic Sans MS&quot; style=&quot;font-size: 12px;&quot;&gt;Сісти в автомобіль&lt;/font&gt;" style="rounded=0;whiteSpace=wrap;html=1;labelBackgroundColor=none;fillColor=#F2CC8F;strokeColor=#E07A5F;fontColor=#393C56;" parent="1" vertex="1">
          <mxGeometry x="280" y="160" width="240" height="20" as="geometry" />
        </mxCell>
        <mxCell id="aRZi8F_NBcynCKokoT6K-8" style="edgeStyle=orthogonalEdgeStyle;rounded=0;orthogonalLoop=1;jettySize=auto;html=1;labelBackgroundColor=none;fontColor=default;strokeColor=#E07A5F;" parent="1" source="aRZi8F_NBcynCKokoT6K-5" edge="1">
          <mxGeometry relative="1" as="geometry">
            <mxPoint x="400" y="240" as="targetPoint" />
          </mxGeometry>
        </mxCell>
        <mxCell id="aRZi8F_NBcynCKokoT6K-5" value="&lt;font face=&quot;Comic Sans MS&quot;&gt;Зачинити двері автомобіля&lt;/font&gt;" style="rounded=0;whiteSpace=wrap;html=1;labelBackgroundColor=none;fillColor=#F2CC8F;strokeColor=#E07A5F;fontColor=#393C56;" parent="1" vertex="1">
          <mxGeometry x="280" y="200" width="240" height="20" as="geometry" />
        </mxCell>
        <mxCell id="aRZi8F_NBcynCKokoT6K-15" style="edgeStyle=orthogonalEdgeStyle;rounded=0;orthogonalLoop=1;jettySize=auto;html=1;entryX=0.5;entryY=0;entryDx=0;entryDy=0;labelBackgroundColor=none;fontColor=default;strokeColor=#E07A5F;" parent="1" source="aRZi8F_NBcynCKokoT6K-10" target="aRZi8F_NBcynCKokoT6K-11" edge="1">
          <mxGeometry relative="1" as="geometry" />
        </mxCell>
        <mxCell id="aRZi8F_NBcynCKokoT6K-10" value="&lt;font face=&quot;Comic Sans MS&quot;&gt;Вставити ключ у замок та прокрутити&lt;/font&gt;" style="rounded=0;whiteSpace=wrap;html=1;labelBackgroundColor=none;fillColor=#F2CC8F;strokeColor=#E07A5F;fontColor=#393C56;" parent="1" vertex="1">
          <mxGeometry x="280" y="240" width="240" height="20" as="geometry" />
        </mxCell>
        <mxCell id="aRZi8F_NBcynCKokoT6K-18" style="edgeStyle=orthogonalEdgeStyle;rounded=0;orthogonalLoop=1;jettySize=auto;html=1;entryX=0.5;entryY=0;entryDx=0;entryDy=0;labelBackgroundColor=none;fontColor=default;strokeColor=#E07A5F;" parent="1" source="aRZi8F_NBcynCKokoT6K-11" target="aRZi8F_NBcynCKokoT6K-17" edge="1">
          <mxGeometry relative="1" as="geometry">
            <Array as="points" />
          </mxGeometry>
        </mxCell>
        <mxCell id="aRZi8F_NBcynCKokoT6K-11" value="&lt;font face=&quot;Comic Sans MS&quot;&gt;Для запуску повторно прокрутити ключ&lt;/font&gt;" style="rounded=0;whiteSpace=wrap;html=1;labelBackgroundColor=none;fillColor=#F2CC8F;strokeColor=#E07A5F;fontColor=#393C56;" parent="1" vertex="1">
          <mxGeometry x="280" y="280" width="240" height="20" as="geometry" />
        </mxCell>
        <mxCell id="aRZi8F_NBcynCKokoT6K-27" style="edgeStyle=orthogonalEdgeStyle;rounded=0;orthogonalLoop=1;jettySize=auto;html=1;entryX=0.5;entryY=0;entryDx=0;entryDy=0;labelBackgroundColor=none;fontColor=default;strokeColor=#E07A5F;" parent="1" source="aRZi8F_NBcynCKokoT6K-12" target="aRZi8F_NBcynCKokoT6K-23" edge="1">
          <mxGeometry relative="1" as="geometry">
            <mxPoint x="570" y="440" as="targetPoint" />
            <Array as="points">
              <mxPoint x="400" y="430" />
              <mxPoint x="400" y="430" />
            </Array>
          </mxGeometry>
        </mxCell>
        <mxCell id="aRZi8F_NBcynCKokoT6K-12" value="&lt;font face=&quot;Comic Sans MS&quot;&gt;Натиснути на педаль зчеплення&lt;/font&gt;" style="rounded=0;whiteSpace=wrap;html=1;labelBackgroundColor=none;fillColor=#F2CC8F;strokeColor=#E07A5F;fontColor=#393C56;" parent="1" vertex="1">
          <mxGeometry x="280" y="400" width="240" height="20" as="geometry" />
        </mxCell>
        <mxCell id="aRZi8F_NBcynCKokoT6K-19" style="edgeStyle=orthogonalEdgeStyle;rounded=0;orthogonalLoop=1;jettySize=auto;html=1;entryX=1;entryY=0.5;entryDx=0;entryDy=0;labelBackgroundColor=none;fontColor=default;strokeColor=#E07A5F;" parent="1" source="aRZi8F_NBcynCKokoT6K-17" target="aRZi8F_NBcynCKokoT6K-11" edge="1">
          <mxGeometry relative="1" as="geometry">
            <mxPoint x="540" y="290" as="targetPoint" />
            <Array as="points">
              <mxPoint x="560" y="350" />
              <mxPoint x="560" y="290" />
            </Array>
          </mxGeometry>
        </mxCell>
        <mxCell id="aRZi8F_NBcynCKokoT6K-21" value="" style="edgeStyle=orthogonalEdgeStyle;rounded=0;orthogonalLoop=1;jettySize=auto;html=1;labelBackgroundColor=none;fontColor=default;strokeColor=#E07A5F;" parent="1" source="aRZi8F_NBcynCKokoT6K-17" target="aRZi8F_NBcynCKokoT6K-12" edge="1">
          <mxGeometry relative="1" as="geometry" />
        </mxCell>
        <mxCell id="aRZi8F_NBcynCKokoT6K-17" value="&lt;font face=&quot;Comic Sans MS&quot; style=&quot;font-size: 12px;&quot;&gt;Запустився&lt;br&gt;двигун?&lt;/font&gt;" style="rhombus;whiteSpace=wrap;html=1;labelBackgroundColor=none;rounded=0;fillColor=#F2CC8F;strokeColor=#E07A5F;fontColor=#393C56;" parent="1" vertex="1">
          <mxGeometry x="340" y="320" width="120" height="60" as="geometry" />
        </mxCell>
        <mxCell id="aRZi8F_NBcynCKokoT6K-20" value="&lt;font face=&quot;Comic Sans MS&quot;&gt;&lt;b&gt;НІ&lt;/b&gt;&lt;/font&gt;" style="text;html=1;align=center;verticalAlign=middle;resizable=0;points=[];autosize=1;strokeColor=none;fillColor=none;labelBackgroundColor=none;rounded=0;fontColor=#393C56;" parent="1" vertex="1">
          <mxGeometry x="500" y="330" width="40" height="30" as="geometry" />
        </mxCell>
        <mxCell id="aRZi8F_NBcynCKokoT6K-22" value="&lt;font face=&quot;Comic Sans MS&quot;&gt;&lt;b&gt;ТАК&lt;/b&gt;&lt;/font&gt;" style="text;html=1;align=center;verticalAlign=middle;resizable=0;points=[];autosize=1;strokeColor=none;fillColor=none;labelBackgroundColor=none;rounded=0;fontColor=#393C56;" parent="1" vertex="1">
          <mxGeometry x="389" y="370" width="50" height="30" as="geometry" />
        </mxCell>
        <mxCell id="aRZi8F_NBcynCKokoT6K-28" style="edgeStyle=orthogonalEdgeStyle;rounded=0;orthogonalLoop=1;jettySize=auto;html=1;exitX=0.5;exitY=1;exitDx=0;exitDy=0;entryX=0.5;entryY=0;entryDx=0;entryDy=0;labelBackgroundColor=none;fontColor=default;strokeColor=#E07A5F;" parent="1" source="aRZi8F_NBcynCKokoT6K-23" target="aRZi8F_NBcynCKokoT6K-24" edge="1">
          <mxGeometry relative="1" as="geometry" />
        </mxCell>
        <mxCell id="aRZi8F_NBcynCKokoT6K-23" value="&lt;font face=&quot;Comic Sans MS&quot;&gt;Увімкнути першу передачу&lt;/font&gt;" style="rounded=0;whiteSpace=wrap;html=1;labelBackgroundColor=none;fillColor=#F2CC8F;strokeColor=#E07A5F;fontColor=#393C56;" parent="1" vertex="1">
          <mxGeometry x="280" y="440" width="240" height="20" as="geometry" />
        </mxCell>
        <mxCell id="aRZi8F_NBcynCKokoT6K-29" style="edgeStyle=orthogonalEdgeStyle;rounded=0;orthogonalLoop=1;jettySize=auto;html=1;entryX=0.5;entryY=0;entryDx=0;entryDy=0;labelBackgroundColor=none;fontColor=default;strokeColor=#E07A5F;" parent="1" target="aRZi8F_NBcynCKokoT6K-36" edge="1">
          <mxGeometry relative="1" as="geometry">
            <mxPoint x="400" y="500" as="sourcePoint" />
          </mxGeometry>
        </mxCell>
        <mxCell id="aRZi8F_NBcynCKokoT6K-24" value="&lt;font face=&quot;Comic Sans MS&quot;&gt;Послаблювати педаль зчеплення&lt;/font&gt;" style="rounded=0;whiteSpace=wrap;html=1;labelBackgroundColor=none;fillColor=#F2CC8F;strokeColor=#E07A5F;fontColor=#393C56;" parent="1" vertex="1">
          <mxGeometry x="280" y="480" width="240" height="20" as="geometry" />
        </mxCell>
        <mxCell id="aRZi8F_NBcynCKokoT6K-30" style="edgeStyle=orthogonalEdgeStyle;rounded=0;orthogonalLoop=1;jettySize=auto;html=1;exitX=0.5;exitY=1;exitDx=0;exitDy=0;entryX=0.5;entryY=0;entryDx=0;entryDy=0;labelBackgroundColor=none;fontColor=default;strokeColor=#E07A5F;" parent="1" source="aRZi8F_NBcynCKokoT6K-25" target="aRZi8F_NBcynCKokoT6K-26" edge="1">
          <mxGeometry relative="1" as="geometry" />
        </mxCell>
        <mxCell id="aRZi8F_NBcynCKokoT6K-25" value="&lt;font face=&quot;Comic Sans MS&quot;&gt;Трохи натиснути педаль акселератора&lt;/font&gt;" style="rounded=0;whiteSpace=wrap;html=1;labelBackgroundColor=none;fillColor=#F2CC8F;strokeColor=#E07A5F;fontColor=#393C56;" parent="1" vertex="1">
          <mxGeometry x="280" y="600" width="240" height="20" as="geometry" />
        </mxCell>
        <mxCell id="aRZi8F_NBcynCKokoT6K-31" style="edgeStyle=orthogonalEdgeStyle;rounded=0;orthogonalLoop=1;jettySize=auto;html=1;exitX=0;exitY=0.5;exitDx=0;exitDy=0;entryX=0.5;entryY=1;entryDx=0;entryDy=0;labelBackgroundColor=none;fontColor=default;strokeColor=#E07A5F;" parent="1" source="aRZi8F_NBcynCKokoT6K-26" edge="1">
          <mxGeometry relative="1" as="geometry">
            <mxPoint x="170" y="500" as="targetPoint" />
          </mxGeometry>
        </mxCell>
        <mxCell id="aRZi8F_NBcynCKokoT6K-45" value="" style="edgeStyle=orthogonalEdgeStyle;rounded=0;orthogonalLoop=1;jettySize=auto;html=1;labelBackgroundColor=none;fontColor=default;strokeColor=#E07A5F;" parent="1" source="aRZi8F_NBcynCKokoT6K-26" target="aRZi8F_NBcynCKokoT6K-44" edge="1">
          <mxGeometry relative="1" as="geometry" />
        </mxCell>
        <mxCell id="aRZi8F_NBcynCKokoT6K-26" value="&lt;font face=&quot;Comic Sans MS&quot; style=&quot;font-size: 12px;&quot;&gt;Двигун заглух?&lt;/font&gt;" style="rhombus;whiteSpace=wrap;html=1;labelBackgroundColor=none;rounded=0;fillColor=#F2CC8F;strokeColor=#E07A5F;fontColor=#393C56;" parent="1" vertex="1">
          <mxGeometry x="340" y="640" width="120" height="60" as="geometry" />
        </mxCell>
        <mxCell id="aRZi8F_NBcynCKokoT6K-34" style="edgeStyle=orthogonalEdgeStyle;rounded=0;orthogonalLoop=1;jettySize=auto;html=1;exitX=0.5;exitY=0;exitDx=0;exitDy=0;entryX=0;entryY=0.5;entryDx=0;entryDy=0;labelBackgroundColor=none;fontColor=default;strokeColor=#E07A5F;" parent="1" target="aRZi8F_NBcynCKokoT6K-11" edge="1">
          <mxGeometry relative="1" as="geometry">
            <mxPoint x="170" y="440" as="sourcePoint" />
            <Array as="points">
              <mxPoint x="170" y="290" />
            </Array>
          </mxGeometry>
        </mxCell>
        <mxCell id="aRZi8F_NBcynCKokoT6K-32" value="&lt;font face=&quot;Comic Sans MS&quot;&gt;Увімкнути нейтральну передачу, прослухати пісню репера &lt;br&gt;&lt;b&gt;Skofka - Заглох&lt;/b&gt;&lt;/font&gt;" style="rounded=0;whiteSpace=wrap;html=1;labelBackgroundColor=none;fillColor=#F2CC8F;strokeColor=#E07A5F;fontColor=#393C56;" parent="1" vertex="1">
          <mxGeometry x="70" y="440" width="200" height="60" as="geometry" />
        </mxCell>
        <mxCell id="aRZi8F_NBcynCKokoT6K-35" value="&lt;font face=&quot;Comic Sans MS&quot;&gt;&lt;b&gt;ТАК&lt;/b&gt;&lt;/font&gt;" style="text;html=1;align=center;verticalAlign=middle;resizable=0;points=[];autosize=1;strokeColor=none;fillColor=none;labelBackgroundColor=none;rounded=0;fontColor=#393C56;" parent="1" vertex="1">
          <mxGeometry x="220" y="650" width="50" height="30" as="geometry" />
        </mxCell>
        <mxCell id="aRZi8F_NBcynCKokoT6K-37" style="edgeStyle=orthogonalEdgeStyle;rounded=0;orthogonalLoop=1;jettySize=auto;html=1;entryX=0.5;entryY=0;entryDx=0;entryDy=0;labelBackgroundColor=none;fontColor=default;strokeColor=#E07A5F;" parent="1" source="aRZi8F_NBcynCKokoT6K-36" target="aRZi8F_NBcynCKokoT6K-25" edge="1">
          <mxGeometry relative="1" as="geometry">
            <mxPoint x="400" y="520" as="targetPoint" />
          </mxGeometry>
        </mxCell>
        <mxCell id="aRZi8F_NBcynCKokoT6K-38" value="" style="edgeStyle=orthogonalEdgeStyle;rounded=0;orthogonalLoop=1;jettySize=auto;html=1;exitX=0.5;exitY=1;exitDx=0;exitDy=0;labelBackgroundColor=none;fontColor=default;strokeColor=#E07A5F;" parent="1" source="aRZi8F_NBcynCKokoT6K-25" target="aRZi8F_NBcynCKokoT6K-26" edge="1">
          <mxGeometry relative="1" as="geometry" />
        </mxCell>
        <mxCell id="aRZi8F_NBcynCKokoT6K-39" style="edgeStyle=orthogonalEdgeStyle;rounded=0;orthogonalLoop=1;jettySize=auto;html=1;entryX=1;entryY=0.5;entryDx=0;entryDy=0;exitX=1;exitY=0.5;exitDx=0;exitDy=0;labelBackgroundColor=none;fontColor=default;strokeColor=#E07A5F;" parent="1" source="aRZi8F_NBcynCKokoT6K-36" target="aRZi8F_NBcynCKokoT6K-24" edge="1">
          <mxGeometry relative="1" as="geometry">
            <mxPoint x="660" y="490" as="targetPoint" />
            <Array as="points">
              <mxPoint x="560" y="550" />
              <mxPoint x="560" y="490" />
            </Array>
          </mxGeometry>
        </mxCell>
        <mxCell id="aRZi8F_NBcynCKokoT6K-36" value="&lt;font face=&quot;Comic Sans MS&quot; style=&quot;font-size: 12px;&quot;&gt;Відбувся&amp;nbsp;&lt;br&gt;поштовх?&lt;/font&gt;" style="rhombus;whiteSpace=wrap;html=1;labelBackgroundColor=none;rounded=0;fillColor=#F2CC8F;strokeColor=#E07A5F;fontColor=#393C56;" parent="1" vertex="1">
          <mxGeometry x="340" y="520" width="120" height="60" as="geometry" />
        </mxCell>
        <mxCell id="aRZi8F_NBcynCKokoT6K-40" value="&lt;font face=&quot;Comic Sans MS&quot;&gt;&lt;b&gt;НІ&lt;/b&gt;&lt;/font&gt;" style="text;html=1;align=center;verticalAlign=middle;resizable=0;points=[];autosize=1;strokeColor=none;fillColor=none;labelBackgroundColor=none;rounded=0;fontColor=#393C56;" parent="1" vertex="1">
          <mxGeometry x="500" y="530" width="40" height="30" as="geometry" />
        </mxCell>
        <mxCell id="aRZi8F_NBcynCKokoT6K-43" value="&lt;font face=&quot;Comic Sans MS&quot;&gt;&lt;b&gt;ТАК&lt;/b&gt;&lt;/font&gt;" style="text;html=1;align=center;verticalAlign=middle;resizable=0;points=[];autosize=1;strokeColor=none;fillColor=none;labelBackgroundColor=none;rounded=0;fontColor=#393C56;" parent="1" vertex="1">
          <mxGeometry x="389" y="570" width="50" height="30" as="geometry" />
        </mxCell>
        <mxCell id="aRZi8F_NBcynCKokoT6K-51" style="edgeStyle=orthogonalEdgeStyle;rounded=0;orthogonalLoop=1;jettySize=auto;html=1;exitX=0.5;exitY=1;exitDx=0;exitDy=0;entryX=0.5;entryY=0;entryDx=0;entryDy=0;labelBackgroundColor=none;fontColor=default;strokeColor=#E07A5F;" parent="1" source="aRZi8F_NBcynCKokoT6K-44" target="aRZi8F_NBcynCKokoT6K-46" edge="1">
          <mxGeometry relative="1" as="geometry" />
        </mxCell>
        <mxCell id="aRZi8F_NBcynCKokoT6K-44" value="&lt;font face=&quot;Comic Sans MS&quot;&gt;Посилити тиск на педаль акселератора, прибираючи ногу зі зчеплення&lt;/font&gt;" style="rounded=0;whiteSpace=wrap;html=1;labelBackgroundColor=none;fillColor=#F2CC8F;strokeColor=#E07A5F;fontColor=#393C56;" parent="1" vertex="1">
          <mxGeometry x="280" y="720" width="240" height="40" as="geometry" />
        </mxCell>
        <mxCell id="aRZi8F_NBcynCKokoT6K-52" style="edgeStyle=orthogonalEdgeStyle;rounded=0;orthogonalLoop=1;jettySize=auto;html=1;exitX=0.5;exitY=1;exitDx=0;exitDy=0;entryX=0.5;entryY=0;entryDx=0;entryDy=0;labelBackgroundColor=none;fontColor=default;strokeColor=#E07A5F;" parent="1" source="aRZi8F_NBcynCKokoT6K-46" target="aRZi8F_NBcynCKokoT6K-47" edge="1">
          <mxGeometry relative="1" as="geometry" />
        </mxCell>
        <mxCell id="aRZi8F_NBcynCKokoT6K-46" value="&lt;font face=&quot;Comic Sans MS&quot;&gt;Натиснути на педаль зчеплення&lt;/font&gt;" style="rounded=0;whiteSpace=wrap;html=1;labelBackgroundColor=none;fillColor=#F2CC8F;strokeColor=#E07A5F;fontColor=#393C56;" parent="1" vertex="1">
          <mxGeometry x="280" y="780" width="240" height="20" as="geometry" />
        </mxCell>
        <mxCell id="aRZi8F_NBcynCKokoT6K-53" style="edgeStyle=orthogonalEdgeStyle;rounded=0;orthogonalLoop=1;jettySize=auto;html=1;exitX=0.5;exitY=1;exitDx=0;exitDy=0;entryX=0.5;entryY=0;entryDx=0;entryDy=0;labelBackgroundColor=none;fontColor=default;strokeColor=#E07A5F;" parent="1" source="aRZi8F_NBcynCKokoT6K-47" target="aRZi8F_NBcynCKokoT6K-48" edge="1">
          <mxGeometry relative="1" as="geometry" />
        </mxCell>
        <mxCell id="aRZi8F_NBcynCKokoT6K-47" value="&lt;font face=&quot;Comic Sans MS&quot;&gt;Увімкнути наступну передачу&lt;/font&gt;" style="rounded=0;whiteSpace=wrap;html=1;labelBackgroundColor=none;fillColor=#F2CC8F;strokeColor=#E07A5F;fontColor=#393C56;" parent="1" vertex="1">
          <mxGeometry x="280" y="820" width="240" height="20" as="geometry" />
        </mxCell>
        <mxCell id="aRZi8F_NBcynCKokoT6K-55" style="edgeStyle=orthogonalEdgeStyle;rounded=0;orthogonalLoop=1;jettySize=auto;html=1;exitX=0.5;exitY=1;exitDx=0;exitDy=0;entryX=0.5;entryY=0;entryDx=0;entryDy=0;labelBackgroundColor=none;fontColor=default;strokeColor=#E07A5F;" parent="1" source="aRZi8F_NBcynCKokoT6K-48" target="aRZi8F_NBcynCKokoT6K-54" edge="1">
          <mxGeometry relative="1" as="geometry" />
        </mxCell>
        <mxCell id="aRZi8F_NBcynCKokoT6K-48" value="&lt;font face=&quot;Comic Sans MS&quot;&gt;Посилити тиск на педаль акселератора, прибираючи ногу зі зчеплення&lt;/font&gt;" style="rounded=0;whiteSpace=wrap;html=1;labelBackgroundColor=none;fillColor=#F2CC8F;strokeColor=#E07A5F;fontColor=#393C56;" parent="1" vertex="1">
          <mxGeometry x="280" y="860" width="240" height="40" as="geometry" />
        </mxCell>
        <mxCell id="aRZi8F_NBcynCKokoT6K-56" style="edgeStyle=orthogonalEdgeStyle;rounded=0;orthogonalLoop=1;jettySize=auto;html=1;exitX=1;exitY=0.5;exitDx=0;exitDy=0;entryX=1;entryY=0.5;entryDx=0;entryDy=0;labelBackgroundColor=none;fontColor=default;strokeColor=#E07A5F;" parent="1" source="aRZi8F_NBcynCKokoT6K-54" target="aRZi8F_NBcynCKokoT6K-46" edge="1">
          <mxGeometry relative="1" as="geometry">
            <Array as="points">
              <mxPoint x="560" y="960" />
              <mxPoint x="560" y="790" />
            </Array>
          </mxGeometry>
        </mxCell>
        <mxCell id="aRZi8F_NBcynCKokoT6K-59" style="edgeStyle=orthogonalEdgeStyle;rounded=0;orthogonalLoop=1;jettySize=auto;html=1;exitX=0.5;exitY=1;exitDx=0;exitDy=0;entryX=0.5;entryY=0;entryDx=0;entryDy=0;labelBackgroundColor=none;fontColor=default;strokeColor=#E07A5F;" parent="1" source="aRZi8F_NBcynCKokoT6K-54" target="aRZi8F_NBcynCKokoT6K-58" edge="1">
          <mxGeometry relative="1" as="geometry" />
        </mxCell>
        <mxCell id="aRZi8F_NBcynCKokoT6K-54" value="&lt;font face=&quot;Comic Sans MS&quot; style=&quot;font-size: 12px;&quot;&gt;Досягли&lt;br&gt;необхідної швидкості?&lt;br&gt;&lt;/font&gt;" style="rhombus;whiteSpace=wrap;html=1;labelBackgroundColor=none;rounded=0;fillColor=#F2CC8F;strokeColor=#E07A5F;fontColor=#393C56;" parent="1" vertex="1">
          <mxGeometry x="340" y="920" width="120" height="80" as="geometry" />
        </mxCell>
        <mxCell id="aRZi8F_NBcynCKokoT6K-57" value="&lt;font face=&quot;Comic Sans MS&quot;&gt;&lt;b&gt;НІ&lt;/b&gt;&lt;/font&gt;" style="text;html=1;align=center;verticalAlign=middle;resizable=0;points=[];autosize=1;strokeColor=none;fillColor=none;labelBackgroundColor=none;rounded=0;fontColor=#393C56;" parent="1" vertex="1">
          <mxGeometry x="500" y="940" width="40" height="30" as="geometry" />
        </mxCell>
        <mxCell id="aRZi8F_NBcynCKokoT6K-58" value="&lt;font face=&quot;Comic Sans MS&quot;&gt;Продовжувати рух&lt;/font&gt;" style="rounded=0;whiteSpace=wrap;html=1;labelBackgroundColor=none;fillColor=#F2CC8F;strokeColor=#E07A5F;fontColor=#393C56;" parent="1" vertex="1">
          <mxGeometry x="280" y="1020" width="240" height="20" as="geometry" />
        </mxCell>
        <mxCell id="aRZi8F_NBcynCKokoT6K-60" value="&lt;font face=&quot;Comic Sans MS&quot;&gt;&lt;b&gt;ТАК&lt;/b&gt;&lt;/font&gt;" style="text;html=1;align=center;verticalAlign=middle;resizable=0;points=[];autosize=1;strokeColor=none;fillColor=none;labelBackgroundColor=none;rounded=0;fontColor=#393C56;" parent="1" vertex="1">
          <mxGeometry x="389" y="990" width="50" height="30" as="geometry" />
        </mxCell>
        <mxCell id="aRZi8F_NBcynCKokoT6K-61" value="&lt;font face=&quot;Comic Sans MS&quot;&gt;&lt;b&gt;НІ&lt;/b&gt;&lt;/font&gt;" style="text;html=1;align=center;verticalAlign=middle;resizable=0;points=[];autosize=1;strokeColor=none;fillColor=none;labelBackgroundColor=none;rounded=0;fontColor=#393C56;" parent="1" vertex="1">
          <mxGeometry x="394" y="690" width="40" height="30" as="geometry" />
        </mxCell>
        <mxCell id="mUsElW4PzbGTxgSbUnpJ-6" value="Шар без назви" parent="0" />
        <UserObject label="Skofka - Заглох" link="https://www.youtube.com/watch?v=dBwpnb1sPY8" id="mUsElW4PzbGTxgSbUnpJ-7">
          <mxCell style="fontColor=#330000;fontStyle=7;rounded=1;overflow=hidden;spacing=10;strokeColor=none;fillColor=#F2CC8F;fontFamily=Comic Sans MS;" vertex="1" parent="mUsElW4PzbGTxgSbUnpJ-6">
            <mxGeometry x="80" y="480" width="170" height="10" as="geometry" />
          </mxCell>
        </UserObject>
      </root>
    </mxGraphModel>
  </diagram>
</mxfile>
